<?xml version="1.0" encoding="UTF-8"?>
<svg xmlns="http://www.w3.org/2000/svg" xmlns:xlink="http://www.w3.org/1999/xlink" width="720pt" height="288pt" viewBox="0 0 720 288" version="1.1">
<defs>
<clipPath id="clip1">
  <path d="M 17.683594 14.945313 L 226.054688 14.945313 L 226.054688 271.316406 L 17.683594 271.316406 Z M 17.683594 14.945313 "/>
</clipPath>
<clipPath id="clip2">
  <path d="M 257.683594 14.945313 L 466.054688 14.945313 L 466.054688 271.316406 L 257.683594 271.316406 Z M 257.683594 14.945313 "/>
</clipPath>
<clipPath id="clip3">
  <path d="M 497.683594 14.945313 L 706.054688 14.945313 L 706.054688 271.316406 L 497.683594 271.316406 Z M 497.683594 14.945313 "/>
</clipPath>
</defs>
<g id="surface29">
<rect x="0" y="0" width="720" height="288" style="fill:rgb(100%,100%,100%);fill-opacity:1;stroke:none;"/>
<g clip-path="url(#clip1)" clip-rule="nonzero">
<path style="fill-rule:nonzero;fill:rgb(47.843137%,81.960784%,31.764706%);fill-opacity:1;stroke-width:1.066978;stroke-linecap:butt;stroke-linejoin:round;stroke:rgb(80%,80%,80%);stroke-opacity:1;stroke-miterlimit:10;" d="M 58.417969 258.707031 L 69.527344 258.707031 L 69.527344 65.242188 L 58.417969 65.242188 Z M 58.417969 258.707031 "/>
<path style="fill-rule:nonzero;fill:rgb(12.156863%,59.607843%,54.509804%);fill-opacity:1;stroke-width:1.066978;stroke-linecap:butt;stroke-linejoin:round;stroke:rgb(80%,80%,80%);stroke-opacity:1;stroke-miterlimit:10;" d="M 47.308594 258.707031 L 58.417969 258.707031 L 58.417969 119.414063 L 47.308594 119.414063 Z M 47.308594 258.707031 "/>
<path style="fill-rule:nonzero;fill:rgb(22.352941%,33.72549%,54.901961%);fill-opacity:1;stroke-width:1.066978;stroke-linecap:butt;stroke-linejoin:round;stroke:rgb(80%,80%,80%);stroke-opacity:1;stroke-miterlimit:10;" d="M 36.199219 258.707031 L 47.308594 258.707031 L 47.308594 142.628906 L 36.199219 142.628906 Z M 36.199219 258.707031 "/>
<path style="fill-rule:nonzero;fill:rgb(26.666667%,0.392157%,32.941176%);fill-opacity:1;stroke-width:1.066978;stroke-linecap:butt;stroke-linejoin:round;stroke:rgb(80%,80%,80%);stroke-opacity:1;stroke-miterlimit:10;" d="M 25.089844 258.707031 L 36.199219 258.707031 L 36.199219 181.320313 L 25.089844 181.320313 Z M 25.089844 258.707031 "/>
<path style="fill-rule:nonzero;fill:rgb(47.843137%,81.960784%,31.764706%);fill-opacity:1;stroke-width:1.066978;stroke-linecap:butt;stroke-linejoin:round;stroke:rgb(80%,80%,80%);stroke-opacity:1;stroke-miterlimit:10;" d="M 107.792969 258.707031 L 118.902344 258.707031 L 118.902344 65.242188 L 107.792969 65.242188 Z M 107.792969 258.707031 "/>
<path style="fill-rule:nonzero;fill:rgb(12.156863%,59.607843%,54.509804%);fill-opacity:1;stroke-width:1.066978;stroke-linecap:butt;stroke-linejoin:round;stroke:rgb(80%,80%,80%);stroke-opacity:1;stroke-miterlimit:10;" d="M 96.683594 258.707031 L 107.792969 258.707031 L 107.792969 103.9375 L 96.683594 103.9375 Z M 96.683594 258.707031 "/>
<path style="fill-rule:nonzero;fill:rgb(22.352941%,33.72549%,54.901961%);fill-opacity:1;stroke-width:1.066978;stroke-linecap:butt;stroke-linejoin:round;stroke:rgb(80%,80%,80%);stroke-opacity:1;stroke-miterlimit:10;" d="M 85.574219 258.707031 L 96.683594 258.707031 L 96.683594 134.890625 L 85.574219 134.890625 Z M 85.574219 258.707031 "/>
<path style="fill-rule:nonzero;fill:rgb(26.666667%,0.392157%,32.941176%);fill-opacity:1;stroke-width:1.066978;stroke-linecap:butt;stroke-linejoin:round;stroke:rgb(80%,80%,80%);stroke-opacity:1;stroke-miterlimit:10;" d="M 74.464844 258.707031 L 85.574219 258.707031 L 85.574219 142.628906 L 74.464844 142.628906 Z M 74.464844 258.707031 "/>
<path style="fill-rule:nonzero;fill:rgb(47.843137%,81.960784%,31.764706%);fill-opacity:1;stroke-width:1.066978;stroke-linecap:butt;stroke-linejoin:round;stroke:rgb(80%,80%,80%);stroke-opacity:1;stroke-miterlimit:10;" d="M 157.167969 258.707031 L 168.277344 258.707031 L 168.277344 26.550781 L 157.167969 26.550781 Z M 157.167969 258.707031 "/>
<path style="fill-rule:nonzero;fill:rgb(12.156863%,59.607843%,54.509804%);fill-opacity:1;stroke-width:1.066978;stroke-linecap:butt;stroke-linejoin:round;stroke:rgb(80%,80%,80%);stroke-opacity:1;stroke-miterlimit:10;" d="M 146.058594 258.707031 L 157.167969 258.707031 L 157.167969 103.9375 L 146.058594 103.9375 Z M 146.058594 258.707031 "/>
<path style="fill-rule:nonzero;fill:rgb(22.352941%,33.72549%,54.901961%);fill-opacity:1;stroke-width:1.066978;stroke-linecap:butt;stroke-linejoin:round;stroke:rgb(80%,80%,80%);stroke-opacity:1;stroke-miterlimit:10;" d="M 134.949219 258.707031 L 146.058594 258.707031 L 146.058594 119.414063 L 134.949219 119.414063 Z M 134.949219 258.707031 "/>
<path style="fill-rule:nonzero;fill:rgb(26.666667%,0.392157%,32.941176%);fill-opacity:1;stroke-width:1.066978;stroke-linecap:butt;stroke-linejoin:round;stroke:rgb(80%,80%,80%);stroke-opacity:1;stroke-miterlimit:10;" d="M 123.839844 258.707031 L 134.949219 258.707031 L 134.949219 84.589844 L 123.839844 84.589844 Z M 123.839844 258.707031 "/>
<path style="fill-rule:nonzero;fill:rgb(47.843137%,81.960784%,31.764706%);fill-opacity:1;stroke-width:1.066978;stroke-linecap:butt;stroke-linejoin:round;stroke:rgb(80%,80%,80%);stroke-opacity:1;stroke-miterlimit:10;" d="M 206.539063 258.707031 L 217.648438 258.707031 L 217.648438 127.152344 L 206.539063 127.152344 Z M 206.539063 258.707031 "/>
<path style="fill-rule:nonzero;fill:rgb(12.156863%,59.607843%,54.509804%);fill-opacity:1;stroke-width:1.066978;stroke-linecap:butt;stroke-linejoin:round;stroke:rgb(80%,80%,80%);stroke-opacity:1;stroke-miterlimit:10;" d="M 195.429688 258.707031 L 206.539063 258.707031 L 206.539063 72.980469 L 195.429688 72.980469 Z M 195.429688 258.707031 "/>
<path style="fill-rule:nonzero;fill:rgb(22.352941%,33.72549%,54.901961%);fill-opacity:1;stroke-width:1.066978;stroke-linecap:butt;stroke-linejoin:round;stroke:rgb(80%,80%,80%);stroke-opacity:1;stroke-miterlimit:10;" d="M 184.320313 258.707031 L 195.429688 258.707031 L 195.429688 26.550781 L 184.320313 26.550781 Z M 184.320313 258.707031 "/>
<path style="fill-rule:nonzero;fill:rgb(26.666667%,0.392157%,32.941176%);fill-opacity:1;stroke-width:1.066978;stroke-linecap:butt;stroke-linejoin:round;stroke:rgb(80%,80%,80%);stroke-opacity:1;stroke-miterlimit:10;" d="M 173.214844 258.707031 L 184.324219 258.707031 L 184.324219 34.289063 L 173.214844 34.289063 Z M 173.214844 258.707031 "/>
</g>
<g clip-path="url(#clip2)" clip-rule="nonzero">
<path style="fill-rule:nonzero;fill:rgb(26.666667%,0.392157%,32.941176%);fill-opacity:1;stroke-width:1.066978;stroke-linecap:butt;stroke-linejoin:round;stroke:rgb(80%,80%,80%);stroke-opacity:1;stroke-miterlimit:10;" d="M 298.417969 258.707031 L 309.527344 258.707031 L 309.527344 34.289063 L 298.417969 34.289063 Z M 298.417969 258.707031 "/>
<path style="fill-rule:nonzero;fill:rgb(26.666667%,0.392157%,32.941176%);fill-opacity:1;stroke-width:1.066978;stroke-linecap:butt;stroke-linejoin:round;stroke:rgb(80%,80%,80%);stroke-opacity:1;stroke-miterlimit:10;" d="M 287.308594 258.707031 L 298.417969 258.707031 L 298.417969 84.589844 L 287.308594 84.589844 Z M 287.308594 258.707031 "/>
<path style="fill-rule:nonzero;fill:rgb(26.666667%,0.392157%,32.941176%);fill-opacity:1;stroke-width:1.066978;stroke-linecap:butt;stroke-linejoin:round;stroke:rgb(80%,80%,80%);stroke-opacity:1;stroke-miterlimit:10;" d="M 276.199219 258.707031 L 287.308594 258.707031 L 287.308594 142.628906 L 276.199219 142.628906 Z M 276.199219 258.707031 "/>
<path style="fill-rule:nonzero;fill:rgb(26.666667%,0.392157%,32.941176%);fill-opacity:1;stroke-width:1.066978;stroke-linecap:butt;stroke-linejoin:round;stroke:rgb(80%,80%,80%);stroke-opacity:1;stroke-miterlimit:10;" d="M 265.089844 258.707031 L 276.199219 258.707031 L 276.199219 181.320313 L 265.089844 181.320313 Z M 265.089844 258.707031 "/>
<path style="fill-rule:nonzero;fill:rgb(22.352941%,33.72549%,54.901961%);fill-opacity:1;stroke-width:1.066978;stroke-linecap:butt;stroke-linejoin:round;stroke:rgb(80%,80%,80%);stroke-opacity:1;stroke-miterlimit:10;" d="M 347.792969 258.707031 L 358.902344 258.707031 L 358.902344 26.550781 L 347.792969 26.550781 Z M 347.792969 258.707031 "/>
<path style="fill-rule:nonzero;fill:rgb(22.352941%,33.72549%,54.901961%);fill-opacity:1;stroke-width:1.066978;stroke-linecap:butt;stroke-linejoin:round;stroke:rgb(80%,80%,80%);stroke-opacity:1;stroke-miterlimit:10;" d="M 336.683594 258.707031 L 347.792969 258.707031 L 347.792969 119.414063 L 336.683594 119.414063 Z M 336.683594 258.707031 "/>
<path style="fill-rule:nonzero;fill:rgb(22.352941%,33.72549%,54.901961%);fill-opacity:1;stroke-width:1.066978;stroke-linecap:butt;stroke-linejoin:round;stroke:rgb(80%,80%,80%);stroke-opacity:1;stroke-miterlimit:10;" d="M 325.574219 258.707031 L 336.683594 258.707031 L 336.683594 134.890625 L 325.574219 134.890625 Z M 325.574219 258.707031 "/>
<path style="fill-rule:nonzero;fill:rgb(22.352941%,33.72549%,54.901961%);fill-opacity:1;stroke-width:1.066978;stroke-linecap:butt;stroke-linejoin:round;stroke:rgb(80%,80%,80%);stroke-opacity:1;stroke-miterlimit:10;" d="M 314.464844 258.707031 L 325.574219 258.707031 L 325.574219 142.628906 L 314.464844 142.628906 Z M 314.464844 258.707031 "/>
<path style="fill-rule:nonzero;fill:rgb(12.156863%,59.607843%,54.509804%);fill-opacity:1;stroke-width:1.066978;stroke-linecap:butt;stroke-linejoin:round;stroke:rgb(80%,80%,80%);stroke-opacity:1;stroke-miterlimit:10;" d="M 397.167969 258.707031 L 408.277344 258.707031 L 408.277344 72.980469 L 397.167969 72.980469 Z M 397.167969 258.707031 "/>
<path style="fill-rule:nonzero;fill:rgb(12.156863%,59.607843%,54.509804%);fill-opacity:1;stroke-width:1.066978;stroke-linecap:butt;stroke-linejoin:round;stroke:rgb(80%,80%,80%);stroke-opacity:1;stroke-miterlimit:10;" d="M 386.058594 258.707031 L 397.167969 258.707031 L 397.167969 103.9375 L 386.058594 103.9375 Z M 386.058594 258.707031 "/>
<path style="fill-rule:nonzero;fill:rgb(12.156863%,59.607843%,54.509804%);fill-opacity:1;stroke-width:1.066978;stroke-linecap:butt;stroke-linejoin:round;stroke:rgb(80%,80%,80%);stroke-opacity:1;stroke-miterlimit:10;" d="M 374.949219 258.707031 L 386.058594 258.707031 L 386.058594 103.9375 L 374.949219 103.9375 Z M 374.949219 258.707031 "/>
<path style="fill-rule:nonzero;fill:rgb(12.156863%,59.607843%,54.509804%);fill-opacity:1;stroke-width:1.066978;stroke-linecap:butt;stroke-linejoin:round;stroke:rgb(80%,80%,80%);stroke-opacity:1;stroke-miterlimit:10;" d="M 363.839844 258.707031 L 374.949219 258.707031 L 374.949219 119.414063 L 363.839844 119.414063 Z M 363.839844 258.707031 "/>
<path style="fill-rule:nonzero;fill:rgb(47.843137%,81.960784%,31.764706%);fill-opacity:1;stroke-width:1.066978;stroke-linecap:butt;stroke-linejoin:round;stroke:rgb(80%,80%,80%);stroke-opacity:1;stroke-miterlimit:10;" d="M 446.539063 258.707031 L 457.648438 258.707031 L 457.648438 127.152344 L 446.539063 127.152344 Z M 446.539063 258.707031 "/>
<path style="fill-rule:nonzero;fill:rgb(47.843137%,81.960784%,31.764706%);fill-opacity:1;stroke-width:1.066978;stroke-linecap:butt;stroke-linejoin:round;stroke:rgb(80%,80%,80%);stroke-opacity:1;stroke-miterlimit:10;" d="M 435.429688 258.707031 L 446.539063 258.707031 L 446.539063 26.550781 L 435.429688 26.550781 Z M 435.429688 258.707031 "/>
<path style="fill-rule:nonzero;fill:rgb(47.843137%,81.960784%,31.764706%);fill-opacity:1;stroke-width:1.066978;stroke-linecap:butt;stroke-linejoin:round;stroke:rgb(80%,80%,80%);stroke-opacity:1;stroke-miterlimit:10;" d="M 424.320313 258.707031 L 435.429688 258.707031 L 435.429688 65.242188 L 424.320313 65.242188 Z M 424.320313 258.707031 "/>
<path style="fill-rule:nonzero;fill:rgb(47.843137%,81.960784%,31.764706%);fill-opacity:1;stroke-width:1.066978;stroke-linecap:butt;stroke-linejoin:round;stroke:rgb(80%,80%,80%);stroke-opacity:1;stroke-miterlimit:10;" d="M 413.214844 258.707031 L 424.324219 258.707031 L 424.324219 65.242188 L 413.214844 65.242188 Z M 413.214844 258.707031 "/>
</g>
<g clip-path="url(#clip3)" clip-rule="nonzero">
<path style="fill:none;stroke-width:4.267913;stroke-linecap:butt;stroke-linejoin:round;stroke:rgb(26.666667%,0.392157%,32.941176%);stroke-opacity:1;stroke-miterlimit:1;" d="M 527.308594 258.707031 L 576.683594 200.667969 L 626.058594 113.609375 L 675.429688 38.160156 "/>
<path style="fill:none;stroke-width:4.267913;stroke-linecap:butt;stroke-linejoin:round;stroke:rgb(22.352941%,33.72549%,54.901961%);stroke-opacity:0.501961;stroke-miterlimit:1;" d="M 527.308594 200.667969 L 576.683594 189.0625 L 626.058594 165.847656 L 675.429688 26.550781 "/>
<path style="fill:none;stroke-width:4.267913;stroke-linecap:butt;stroke-linejoin:round;stroke:rgb(12.156863%,59.607843%,54.509804%);stroke-opacity:0.501961;stroke-miterlimit:1;" d="M 527.308594 165.847656 L 576.683594 142.628906 L 626.058594 142.628906 L 675.429688 96.199219 "/>
<path style="fill:none;stroke-width:4.267913;stroke-linecap:butt;stroke-linejoin:round;stroke:rgb(47.843137%,81.960784%,31.764706%);stroke-opacity:0.501961;stroke-miterlimit:1;" d="M 527.308594 84.589844 L 576.683594 84.589844 L 626.058594 26.550781 L 675.429688 177.453125 "/>
</g>
</g>
</svg>
