<?xml version="1.0" encoding="UTF-8"?>
<svg xmlns="http://www.w3.org/2000/svg" xmlns:xlink="http://www.w3.org/1999/xlink" width="720pt" height="432pt" viewBox="0 0 720 432" version="1.1">
<g id="surface41">
<rect x="0" y="0" width="720" height="432" style="fill:rgb(100%,100%,100%);fill-opacity:1;stroke:none;"/>
<path style=" stroke:none;fill-rule:nonzero;fill:rgb(0%,0%,1.568627%);fill-opacity:1;" d="M 21.265625 396.042969 L 42.007812 396.042969 L 42.007812 183.355469 L 21.265625 183.355469 Z M 21.265625 396.042969 "/>
<path style=" stroke:none;fill-rule:nonzero;fill:rgb(5.882353%,3.529412%,17.254902%);fill-opacity:1;" d="M 44.3125 396.042969 L 65.054688 396.042969 L 65.054688 292.011719 L 44.3125 292.011719 Z M 44.3125 396.042969 "/>
<path style=" stroke:none;fill-rule:nonzero;fill:rgb(17.647059%,4.313725%,35.294118%);fill-opacity:1;" d="M 67.355469 396.042969 L 88.097656 396.042969 L 88.097656 237.300781 L 67.355469 237.300781 Z M 67.355469 396.042969 "/>
<path style=" stroke:none;fill-rule:nonzero;fill:rgb(30.980392%,5.098039%,42.352941%);fill-opacity:1;" d="M 90.402344 396.042969 L 111.144531 396.042969 L 111.144531 178.734375 L 90.402344 178.734375 Z M 90.402344 396.042969 "/>
<path style=" stroke:none;fill-rule:nonzero;fill:rgb(43.137255%,9.411765%,43.137255%);fill-opacity:1;" d="M 113.449219 396.042969 L 134.191406 396.042969 L 134.191406 156.386719 L 113.449219 156.386719 Z M 113.449219 396.042969 "/>
<path style=" stroke:none;fill-rule:nonzero;fill:rgb(55.294118%,13.72549%,41.176471%);fill-opacity:1;" d="M 136.492188 396.042969 L 157.234375 396.042969 L 157.234375 227.28125 L 136.492188 227.28125 Z M 136.492188 396.042969 "/>
<path style=" stroke:none;fill-rule:nonzero;fill:rgb(67.843137%,18.823529%,36.470588%);fill-opacity:1;" d="M 159.539062 396.042969 L 180.28125 396.042969 L 180.28125 33.089844 L 159.539062 33.089844 Z M 159.539062 396.042969 "/>
<path style=" stroke:none;fill-rule:nonzero;fill:rgb(78.823529%,24.705882%,29.411765%);fill-opacity:1;" d="M 182.585938 396.042969 L 203.328125 396.042969 L 203.328125 288.929688 L 182.585938 288.929688 Z M 182.585938 396.042969 "/>
<path style=" stroke:none;fill-rule:nonzero;fill:rgb(88.235294%,33.72549%,20.784314%);fill-opacity:1;" d="M 205.628906 396.042969 L 226.371094 396.042969 L 226.371094 245.777344 L 205.628906 245.777344 Z M 205.628906 396.042969 "/>
<path style=" stroke:none;fill-rule:nonzero;fill:rgb(94.509804%,45.490196%,10.980392%);fill-opacity:1;" d="M 228.675781 396.042969 L 249.417969 396.042969 L 249.417969 262.730469 L 228.675781 262.730469 Z M 228.675781 396.042969 "/>
<path style=" stroke:none;fill-rule:nonzero;fill:rgb(98.431373%,58.823529%,2.352941%);fill-opacity:1;" d="M 251.722656 396.042969 L 272.464844 396.042969 L 272.464844 271.207031 L 251.722656 271.207031 Z M 251.722656 396.042969 "/>
<path style=" stroke:none;fill-rule:nonzero;fill:rgb(98.431373%,73.72549%,12.941176%);fill-opacity:1;" d="M 274.765625 396.042969 L 295.507812 396.042969 L 295.507812 103.984375 L 274.765625 103.984375 Z M 274.765625 396.042969 "/>
<path style=" stroke:none;fill-rule:nonzero;fill:rgb(95.686275%,88.627451%,34.509804%);fill-opacity:1;" d="M 297.8125 396.042969 L 318.554688 396.042969 L 318.554688 208.789062 L 297.8125 208.789062 Z M 297.8125 396.042969 "/>
<path style=" stroke:none;fill-rule:nonzero;fill:rgb(98.823529%,100%,64.313725%);fill-opacity:1;" d="M 320.859375 396.042969 L 341.601562 396.042969 L 341.601562 154.074219 L 320.859375 154.074219 Z M 320.859375 396.042969 "/>
<path style=" stroke:none;fill-rule:nonzero;fill:rgb(98.823529%,100%,64.313725%);fill-opacity:1;" d="M 541.433594 214.566406 L 543.839844 210.75 L 546.25 206.933594 L 548.65625 203.117188 L 551.066406 199.296875 L 553.476562 195.480469 L 555.882812 191.664062 L 558.292969 187.847656 L 560.703125 184.027344 L 563.109375 180.210938 L 565.519531 176.394531 L 567.925781 172.578125 L 570.335938 168.757812 L 572.746094 164.941406 L 575.152344 161.125 L 577.5625 157.308594 L 579.972656 153.488281 L 582.378906 149.671875 L 584.789062 145.855469 L 587.195312 142.039062 L 589.605469 138.21875 L 592.015625 134.402344 L 594.421875 130.585938 L 596.832031 126.769531 L 599.242188 122.949219 L 601.648438 119.132812 L 604.058594 115.316406 L 606.464844 111.5 L 608.875 107.679688 L 611.285156 103.863281 L 607.347656 101.476562 L 603.328125 99.226562 L 599.234375 97.121094 L 595.066406 95.160156 L 590.832031 93.347656 L 586.539062 91.6875 L 582.1875 90.175781 L 577.789062 88.820312 L 573.34375 87.617188 L 568.859375 86.574219 L 564.339844 85.6875 L 559.792969 84.960938 L 555.222656 84.398438 L 550.632812 83.992188 L 546.035156 83.75 L 541.433594 83.667969 Z M 541.433594 214.566406 "/>
<path style=" stroke:none;fill-rule:nonzero;fill:rgb(95.686275%,88.627451%,34.509804%);fill-opacity:1;" d="M 541.433594 214.566406 L 545.226562 212.125 L 549.019531 209.679688 L 552.816406 207.234375 L 556.609375 204.789062 L 560.40625 202.34375 L 564.199219 199.902344 L 567.992188 197.457031 L 571.789062 195.011719 L 575.582031 192.566406 L 579.378906 190.121094 L 583.171875 187.679688 L 586.964844 185.234375 L 590.761719 182.789062 L 594.554688 180.34375 L 598.351562 177.898438 L 602.144531 175.457031 L 605.9375 173.011719 L 609.734375 170.566406 L 613.527344 168.121094 L 617.324219 165.679688 L 624.910156 160.789062 L 628.707031 158.34375 L 632.5 155.898438 L 636.296875 153.457031 L 643.882812 148.566406 L 647.679688 146.121094 L 651.472656 143.675781 L 648.828125 139.730469 L 646.042969 135.882812 L 643.117188 132.136719 L 640.058594 128.5 L 636.871094 124.976562 L 633.554688 121.574219 L 630.121094 118.292969 L 626.566406 115.136719 L 622.902344 112.113281 L 619.128906 109.222656 L 615.253906 106.472656 L 611.285156 103.863281 L 608.875 107.679688 L 606.464844 111.5 L 604.058594 115.316406 L 601.648438 119.132812 L 599.242188 122.949219 L 596.832031 126.769531 L 594.421875 130.585938 L 592.015625 134.402344 L 589.605469 138.21875 L 587.195312 142.039062 L 584.789062 145.855469 L 582.378906 149.671875 L 579.972656 153.488281 L 577.5625 157.308594 L 575.152344 161.125 L 572.746094 164.941406 L 570.335938 168.757812 L 567.925781 172.578125 L 565.519531 176.394531 L 563.109375 180.210938 L 560.703125 184.027344 L 558.292969 187.847656 L 555.882812 191.664062 L 553.476562 195.480469 L 551.066406 199.296875 L 548.65625 203.117188 L 546.25 206.933594 L 543.839844 210.75 Z M 541.433594 214.566406 "/>
<path style=" stroke:none;fill-rule:nonzero;fill:rgb(98.431373%,73.72549%,12.941176%);fill-opacity:1;" d="M 541.433594 214.566406 L 545.921875 215.050781 L 550.40625 215.53125 L 559.382812 216.5 L 563.871094 216.980469 L 568.359375 217.464844 L 572.847656 217.945312 L 577.335938 218.429688 L 581.824219 218.910156 L 586.3125 219.394531 L 590.800781 219.875 L 595.285156 220.359375 L 599.773438 220.839844 L 604.261719 221.324219 L 608.75 221.804688 L 613.238281 222.289062 L 617.726562 222.769531 L 622.214844 223.253906 L 626.703125 223.734375 L 635.679688 224.703125 L 640.164062 225.183594 L 644.652344 225.667969 L 649.140625 226.148438 L 653.628906 226.632812 L 658.117188 227.113281 L 662.605469 227.597656 L 667.09375 228.078125 L 671.582031 228.5625 L 671.980469 224.132812 L 672.230469 219.695312 L 672.328125 215.25 L 672.277344 210.800781 L 672.074219 206.359375 L 671.71875 201.929688 L 671.214844 197.511719 L 670.5625 193.113281 L 669.757812 188.738281 L 668.804688 184.394531 L 667.707031 180.085938 L 666.464844 175.816406 L 665.074219 171.59375 L 663.546875 167.417969 L 661.875 163.296875 L 660.0625 159.238281 L 658.113281 155.242188 L 656.03125 151.3125 L 653.816406 147.457031 L 651.472656 143.675781 L 647.679688 146.121094 L 643.882812 148.566406 L 636.296875 153.457031 L 632.5 155.898438 L 628.707031 158.34375 L 624.910156 160.789062 L 617.324219 165.679688 L 613.527344 168.121094 L 609.734375 170.566406 L 605.9375 173.011719 L 602.144531 175.457031 L 598.351562 177.898438 L 594.554688 180.34375 L 590.761719 182.789062 L 586.964844 185.234375 L 583.171875 187.679688 L 579.378906 190.121094 L 575.582031 192.566406 L 571.789062 195.011719 L 567.992188 197.457031 L 564.199219 199.902344 L 560.40625 202.34375 L 556.609375 204.789062 L 552.816406 207.234375 L 549.019531 209.679688 L 545.226562 212.125 Z M 541.433594 214.566406 "/>
<path style=" stroke:none;fill-rule:nonzero;fill:rgb(98.431373%,58.823529%,2.352941%);fill-opacity:1;" d="M 541.433594 214.566406 L 545.59375 216.316406 L 549.753906 218.0625 L 553.917969 219.808594 L 558.078125 221.558594 L 562.242188 223.304688 L 566.402344 225.050781 L 570.566406 226.800781 L 578.886719 230.292969 L 583.050781 232.042969 L 587.210938 233.789062 L 591.375 235.535156 L 595.535156 237.285156 L 599.699219 239.03125 L 603.859375 240.777344 L 608.019531 242.527344 L 612.183594 244.273438 L 616.34375 246.019531 L 620.507812 247.769531 L 628.828125 251.261719 L 632.992188 253.011719 L 637.152344 254.757812 L 641.316406 256.503906 L 645.476562 258.253906 L 649.640625 260 L 653.800781 261.746094 L 657.960938 263.496094 L 662.125 265.242188 L 663.882812 260.828125 L 665.480469 256.355469 L 666.917969 251.824219 L 668.1875 247.246094 L 669.289062 242.625 L 670.222656 237.964844 L 670.988281 233.277344 L 671.582031 228.5625 L 667.09375 228.078125 L 662.605469 227.597656 L 658.117188 227.113281 L 653.628906 226.632812 L 649.140625 226.148438 L 644.652344 225.667969 L 640.164062 225.183594 L 635.679688 224.703125 L 626.703125 223.734375 L 622.214844 223.253906 L 617.726562 222.769531 L 613.238281 222.289062 L 608.75 221.804688 L 604.261719 221.324219 L 599.773438 220.839844 L 595.285156 220.359375 L 590.800781 219.875 L 586.3125 219.394531 L 581.824219 218.910156 L 577.335938 218.429688 L 572.847656 217.945312 L 568.359375 217.464844 L 563.871094 216.980469 L 559.382812 216.5 L 550.40625 215.53125 L 545.921875 215.050781 Z M 541.433594 214.566406 "/>
<path style=" stroke:none;fill-rule:nonzero;fill:rgb(94.509804%,45.490196%,10.980392%);fill-opacity:1;" d="M 541.433594 214.566406 L 544.863281 217.503906 L 565.441406 235.105469 L 568.871094 238.042969 L 579.160156 246.84375 L 582.59375 249.777344 L 592.882812 258.578125 L 596.3125 261.515625 L 616.890625 279.117188 L 620.320312 282.054688 L 623.75 284.988281 L 627.183594 287.921875 L 640.902344 299.65625 L 643.773438 296.179688 L 646.523438 292.605469 L 649.152344 288.9375 L 651.648438 285.183594 L 654.015625 281.34375 L 656.25 277.425781 L 658.347656 273.433594 L 660.308594 269.371094 L 662.125 265.242188 L 657.960938 263.496094 L 653.800781 261.746094 L 649.640625 260 L 645.476562 258.253906 L 641.316406 256.503906 L 637.152344 254.757812 L 632.992188 253.011719 L 628.828125 251.261719 L 620.507812 247.769531 L 616.34375 246.019531 L 612.183594 244.273438 L 608.019531 242.527344 L 603.859375 240.777344 L 599.699219 239.03125 L 595.535156 237.285156 L 591.375 235.535156 L 587.210938 233.789062 L 583.050781 232.042969 L 578.886719 230.292969 L 570.566406 226.800781 L 566.402344 225.050781 L 562.242188 223.304688 L 558.078125 221.558594 L 553.917969 219.808594 L 549.753906 218.0625 L 545.59375 216.316406 Z M 541.433594 214.566406 "/>
<path style=" stroke:none;fill-rule:nonzero;fill:rgb(88.235294%,33.72549%,20.784314%);fill-opacity:1;" d="M 541.433594 214.566406 L 543.648438 218.5 L 545.867188 222.429688 L 548.085938 226.363281 L 550.300781 230.292969 L 552.519531 234.226562 L 556.957031 242.085938 L 559.171875 246.019531 L 561.390625 249.949219 L 563.609375 253.882812 L 565.828125 257.8125 L 568.042969 261.746094 L 570.261719 265.675781 L 572.480469 269.609375 L 574.695312 273.539062 L 576.914062 277.46875 L 579.132812 281.402344 L 581.351562 285.332031 L 583.566406 289.265625 L 585.785156 293.195312 L 588.003906 297.128906 L 590.21875 301.058594 L 592.4375 304.992188 L 594.65625 308.921875 L 596.875 312.855469 L 599.089844 316.785156 L 601.308594 320.714844 L 603.527344 324.648438 L 605.742188 328.578125 L 609.6875 326.261719 L 613.550781 323.808594 L 617.324219 321.222656 L 621.007812 318.503906 L 624.589844 315.660156 L 628.070312 312.691406 L 631.449219 309.601562 L 634.714844 306.398438 L 637.867188 303.082031 L 640.902344 299.65625 L 627.183594 287.921875 L 623.75 284.988281 L 620.320312 282.054688 L 616.890625 279.117188 L 596.3125 261.515625 L 592.882812 258.578125 L 582.59375 249.777344 L 579.160156 246.84375 L 568.871094 238.042969 L 565.441406 235.105469 L 544.863281 217.503906 Z M 541.433594 214.566406 "/>
<path style=" stroke:none;fill-rule:nonzero;fill:rgb(78.823529%,24.705882%,29.411765%);fill-opacity:1;" d="M 541.433594 214.566406 L 542.613281 218.925781 L 544.972656 227.636719 L 546.152344 231.996094 L 547.332031 236.351562 L 548.511719 240.710938 L 550.871094 249.421875 L 552.050781 253.78125 L 553.230469 258.136719 L 554.40625 262.492188 L 555.585938 266.851562 L 557.945312 275.5625 L 559.125 279.921875 L 560.304688 284.277344 L 561.484375 288.636719 L 563.84375 297.347656 L 565.023438 301.707031 L 567.382812 310.417969 L 568.5625 314.777344 L 570.921875 323.488281 L 572.101562 327.847656 L 573.28125 332.203125 L 574.460938 336.5625 L 575.640625 340.917969 L 580.117188 339.621094 L 584.542969 338.164062 L 588.914062 336.550781 L 593.226562 334.785156 L 597.472656 332.863281 L 601.644531 330.796875 L 605.742188 328.578125 L 603.527344 324.648438 L 601.308594 320.714844 L 599.089844 316.785156 L 596.875 312.855469 L 594.65625 308.921875 L 592.4375 304.992188 L 590.21875 301.058594 L 588.003906 297.128906 L 585.785156 293.195312 L 583.566406 289.265625 L 581.351562 285.332031 L 579.132812 281.402344 L 576.914062 277.46875 L 574.695312 273.539062 L 572.480469 269.609375 L 570.261719 265.675781 L 568.042969 261.746094 L 565.828125 257.8125 L 563.609375 253.882812 L 561.390625 249.949219 L 559.171875 246.019531 L 556.957031 242.085938 L 552.519531 234.226562 L 550.300781 230.292969 L 548.085938 226.363281 L 545.867188 222.429688 L 543.648438 218.5 Z M 541.433594 214.566406 "/>
<path style=" stroke:none;fill-rule:nonzero;fill:rgb(67.843137%,18.823529%,36.470588%);fill-opacity:1;" d="M 541.433594 214.566406 L 538.957031 218.34375 L 536.484375 222.121094 L 534.011719 225.894531 L 531.539062 229.671875 L 529.066406 233.445312 L 526.59375 237.222656 L 524.117188 241 L 521.644531 244.773438 L 519.171875 248.550781 L 516.699219 252.324219 L 511.753906 259.878906 L 509.277344 263.652344 L 506.804688 267.429688 L 504.332031 271.203125 L 499.386719 278.757812 L 496.910156 282.53125 L 494.4375 286.308594 L 491.964844 290.082031 L 487.019531 297.636719 L 484.546875 301.410156 L 482.070312 305.1875 L 479.597656 308.960938 L 474.652344 316.515625 L 472.179688 320.289062 L 469.707031 324.066406 L 473.601562 326.519531 L 477.582031 328.835938 L 481.640625 331.011719 L 485.773438 333.042969 L 489.972656 334.929688 L 494.238281 336.664062 L 498.5625 338.25 L 502.941406 339.679688 L 507.363281 340.957031 L 511.832031 342.074219 L 516.332031 343.039062 L 520.867188 343.839844 L 525.429688 344.484375 L 530.007812 344.96875 L 534.601562 345.289062 L 539.203125 345.449219 L 543.808594 345.445312 L 548.410156 345.28125 L 553.003906 344.953125 L 557.582031 344.46875 L 562.140625 343.820312 L 566.675781 343.011719 L 571.175781 342.042969 L 575.640625 340.917969 L 574.460938 336.5625 L 573.28125 332.203125 L 572.101562 327.847656 L 570.921875 323.488281 L 568.5625 314.777344 L 567.382812 310.417969 L 565.023438 301.707031 L 563.84375 297.347656 L 561.484375 288.636719 L 560.304688 284.277344 L 559.125 279.921875 L 557.945312 275.5625 L 555.585938 266.851562 L 554.40625 262.492188 L 553.230469 258.136719 L 552.050781 253.78125 L 550.871094 249.421875 L 548.511719 240.710938 L 547.332031 236.351562 L 546.152344 231.996094 L 544.972656 227.636719 L 542.613281 218.925781 Z M 541.433594 214.566406 "/>
<path style=" stroke:none;fill-rule:nonzero;fill:rgb(55.294118%,13.72549%,41.176471%);fill-opacity:1;" d="M 541.433594 214.566406 L 526.511719 224.738281 L 522.785156 227.28125 L 519.054688 229.820312 L 507.863281 237.449219 L 504.136719 239.992188 L 500.40625 242.53125 L 489.214844 250.160156 L 485.488281 252.703125 L 481.757812 255.246094 L 478.027344 257.785156 L 466.835938 265.414062 L 463.109375 267.957031 L 459.378906 270.5 L 455.648438 273.039062 L 448.1875 278.125 L 444.460938 280.667969 L 437 285.753906 L 433.269531 288.292969 L 435.96875 292.105469 L 438.804688 295.820312 L 441.769531 299.429688 L 444.859375 302.933594 L 448.074219 306.324219 L 451.40625 309.59375 L 454.855469 312.746094 L 458.414062 315.773438 L 462.078125 318.671875 L 465.84375 321.4375 L 469.707031 324.066406 L 472.179688 320.289062 L 474.652344 316.515625 L 479.597656 308.960938 L 482.070312 305.1875 L 484.546875 301.410156 L 487.019531 297.636719 L 491.964844 290.082031 L 494.4375 286.308594 L 496.910156 282.53125 L 499.386719 278.757812 L 504.332031 271.203125 L 506.804688 267.429688 L 509.277344 263.652344 L 511.753906 259.878906 L 516.699219 252.324219 L 519.171875 248.550781 L 521.644531 244.773438 L 524.117188 241 L 526.59375 237.222656 L 529.066406 233.445312 L 531.539062 229.671875 L 534.011719 225.894531 L 536.484375 222.121094 L 538.957031 218.34375 Z M 541.433594 214.566406 "/>
<path style=" stroke:none;fill-rule:nonzero;fill:rgb(43.137255%,9.411765%,43.137255%);fill-opacity:1;" d="M 541.433594 214.566406 L 536.921875 214.75 L 532.414062 214.9375 L 523.390625 215.304688 L 518.882812 215.488281 L 514.371094 215.671875 L 509.863281 215.855469 L 505.351562 216.039062 L 500.84375 216.222656 L 496.332031 216.40625 L 491.820312 216.59375 L 487.3125 216.777344 L 482.800781 216.960938 L 478.292969 217.144531 L 473.78125 217.328125 L 469.273438 217.511719 L 460.25 217.878906 L 455.742188 218.066406 L 451.230469 218.25 L 446.722656 218.433594 L 442.210938 218.617188 L 437.703125 218.800781 L 433.191406 218.984375 L 428.683594 219.167969 L 419.660156 219.535156 L 415.152344 219.722656 L 410.640625 219.90625 L 410.90625 224.457031 L 411.332031 229 L 411.914062 233.523438 L 412.652344 238.023438 L 413.546875 242.496094 L 414.597656 246.933594 L 415.800781 251.332031 L 417.160156 255.6875 L 418.667969 259.992188 L 420.324219 264.242188 L 422.128906 268.429688 L 424.078125 272.554688 L 426.167969 276.605469 L 428.398438 280.582031 L 430.765625 284.480469 L 433.269531 288.292969 L 437 285.753906 L 444.460938 280.667969 L 448.1875 278.125 L 455.648438 273.039062 L 459.378906 270.5 L 463.109375 267.957031 L 466.835938 265.414062 L 478.027344 257.785156 L 481.757812 255.246094 L 485.488281 252.703125 L 489.214844 250.160156 L 500.40625 242.53125 L 504.136719 239.992188 L 507.863281 237.449219 L 519.054688 229.820312 L 522.785156 227.28125 L 526.511719 224.738281 Z M 541.433594 214.566406 "/>
<path style=" stroke:none;fill-rule:nonzero;fill:rgb(30.980392%,5.098039%,42.352941%);fill-opacity:1;" d="M 541.433594 214.566406 L 537.398438 212.542969 L 533.363281 210.523438 L 501.082031 194.335938 L 497.046875 192.316406 L 460.730469 174.105469 L 456.695312 172.085938 L 440.554688 163.992188 L 436.523438 161.96875 L 424.417969 155.898438 L 422.375 160.164062 L 420.488281 164.496094 L 418.757812 168.894531 L 417.191406 173.351562 L 415.785156 177.867188 L 414.539062 182.425781 L 413.464844 187.027344 L 412.550781 191.664062 L 411.808594 196.332031 L 411.234375 201.023438 L 410.832031 205.734375 L 410.597656 210.453125 L 410.535156 215.179688 L 410.640625 219.90625 L 415.152344 219.722656 L 419.660156 219.535156 L 428.683594 219.167969 L 433.191406 218.984375 L 437.703125 218.800781 L 442.210938 218.617188 L 446.722656 218.433594 L 451.230469 218.25 L 455.742188 218.066406 L 460.25 217.878906 L 469.273438 217.511719 L 473.78125 217.328125 L 478.292969 217.144531 L 482.800781 216.960938 L 487.3125 216.777344 L 491.820312 216.59375 L 496.332031 216.40625 L 500.84375 216.222656 L 505.351562 216.039062 L 509.863281 215.855469 L 514.371094 215.671875 L 518.882812 215.488281 L 523.390625 215.304688 L 532.414062 214.9375 L 536.921875 214.75 Z M 541.433594 214.566406 "/>
<path style=" stroke:none;fill-rule:nonzero;fill:rgb(17.647059%,4.313725%,35.294118%);fill-opacity:1;" d="M 541.433594 214.566406 L 538.398438 211.226562 L 535.367188 207.882812 L 532.332031 204.539062 L 526.269531 197.851562 L 523.234375 194.507812 L 520.203125 191.167969 L 517.167969 187.824219 L 511.105469 181.136719 L 508.070312 177.792969 L 505.039062 174.449219 L 502.003906 171.109375 L 495.941406 164.421875 L 492.90625 161.078125 L 489.875 157.734375 L 486.839844 154.390625 L 483.808594 151.050781 L 480.777344 147.707031 L 477.742188 144.363281 L 474.710938 141.019531 L 471.675781 137.675781 L 468.644531 134.335938 L 465.613281 130.992188 L 462.578125 127.648438 L 459.546875 124.304688 L 456.511719 120.960938 L 453.480469 117.617188 L 449.960938 120.933594 L 446.566406 124.371094 L 443.300781 127.9375 L 440.171875 131.617188 L 437.175781 135.414062 L 434.324219 139.316406 L 431.621094 143.324219 L 429.066406 147.425781 L 426.664062 151.621094 L 424.417969 155.898438 L 436.523438 161.96875 L 440.554688 163.992188 L 456.695312 172.085938 L 460.730469 174.105469 L 497.046875 192.316406 L 501.082031 194.335938 L 533.363281 210.523438 L 537.398438 212.542969 Z M 541.433594 214.566406 "/>
<path style=" stroke:none;fill-rule:nonzero;fill:rgb(5.882353%,3.529412%,17.254902%);fill-opacity:1;" d="M 541.433594 214.566406 L 537.144531 206.621094 L 535.003906 202.652344 L 530.714844 194.707031 L 528.574219 190.734375 L 524.285156 182.789062 L 522.144531 178.816406 L 517.855469 170.871094 L 515.714844 166.898438 L 511.425781 158.953125 L 509.285156 154.980469 L 504.996094 147.035156 L 502.855469 143.0625 L 496.421875 131.144531 L 494.28125 127.171875 L 492.136719 123.199219 L 489.992188 119.230469 L 487.851562 115.257812 L 483.5625 107.3125 L 481.421875 103.339844 L 479.277344 99.367188 L 475.332031 101.582031 L 471.46875 103.9375 L 467.683594 106.421875 L 463.992188 109.035156 L 460.390625 111.773438 L 456.882812 114.636719 L 453.480469 117.617188 L 456.511719 120.960938 L 459.546875 124.304688 L 462.578125 127.648438 L 465.613281 130.992188 L 468.644531 134.335938 L 471.675781 137.675781 L 474.710938 141.019531 L 477.742188 144.363281 L 480.777344 147.707031 L 483.808594 151.050781 L 486.839844 154.390625 L 489.875 157.734375 L 492.90625 161.078125 L 495.941406 164.421875 L 502.003906 171.109375 L 505.039062 174.449219 L 508.070312 177.792969 L 511.105469 181.136719 L 517.167969 187.824219 L 520.203125 191.167969 L 523.234375 194.507812 L 526.269531 197.851562 L 532.332031 204.539062 L 535.367188 207.882812 L 538.398438 211.226562 Z M 541.433594 214.566406 "/>
<path style=" stroke:none;fill-rule:nonzero;fill:rgb(0%,0%,1.568627%);fill-opacity:1;" d="M 541.433594 214.566406 L 541.433594 83.667969 L 536.808594 83.75 L 532.1875 83.996094 L 527.578125 84.402344 L 522.988281 84.972656 L 518.421875 85.707031 L 513.882812 86.601562 L 509.378906 87.652344 L 504.914062 88.867188 L 500.496094 90.234375 L 496.128906 91.757812 L 491.816406 93.4375 L 487.570312 95.265625 L 483.386719 97.242188 L 479.277344 99.367188 L 481.421875 103.339844 L 483.5625 107.3125 L 487.851562 115.257812 L 489.992188 119.230469 L 492.136719 123.199219 L 494.28125 127.171875 L 496.421875 131.144531 L 502.855469 143.0625 L 504.996094 147.035156 L 509.285156 154.980469 L 511.425781 158.953125 L 515.714844 166.898438 L 517.855469 170.871094 L 522.144531 178.816406 L 524.285156 182.789062 L 528.574219 190.734375 L 530.714844 194.707031 L 535.003906 202.652344 L 537.144531 206.621094 Z M 541.433594 214.566406 "/>
</g>
</svg>
