<?xml version="1.0" encoding="UTF-8"?>
<svg xmlns="http://www.w3.org/2000/svg" xmlns:xlink="http://www.w3.org/1999/xlink" width="720pt" height="288pt" viewBox="0 0 720 288" version="1.1">
<g id="surface31">
<rect x="0" y="0" width="720" height="288" style="fill:rgb(100%,100%,100%);fill-opacity:1;stroke:none;"/>
<path style="fill-rule:nonzero;fill:rgb(47.843137%,81.960784%,31.764706%);fill-opacity:1;stroke-width:1.066978;stroke-linecap:butt;stroke-linejoin:round;stroke:rgb(80%,80%,80%);stroke-opacity:1;stroke-miterlimit:10;" d="M 58.519531 258.589844 L 69.621094 258.589844 L 69.621094 65.21875 L 58.519531 65.21875 Z M 58.519531 258.589844 "/>
<path style="fill-rule:nonzero;fill:rgb(12.156863%,59.607843%,54.509804%);fill-opacity:1;stroke-width:1.066978;stroke-linecap:butt;stroke-linejoin:round;stroke:rgb(80%,80%,80%);stroke-opacity:1;stroke-miterlimit:10;" d="M 47.414062 258.589844 L 58.515625 258.589844 L 58.515625 119.363281 L 47.414062 119.363281 Z M 47.414062 258.589844 "/>
<path style="fill-rule:nonzero;fill:rgb(22.352941%,33.72549%,54.901961%);fill-opacity:1;stroke-width:1.066978;stroke-linecap:butt;stroke-linejoin:round;stroke:rgb(80%,80%,80%);stroke-opacity:1;stroke-miterlimit:10;" d="M 36.3125 258.589844 L 47.414062 258.589844 L 47.414062 142.566406 L 36.3125 142.566406 Z M 36.3125 258.589844 "/>
<path style="fill-rule:nonzero;fill:rgb(26.666667%,0.392157%,32.941176%);fill-opacity:1;stroke-width:1.066978;stroke-linecap:butt;stroke-linejoin:round;stroke:rgb(80%,80%,80%);stroke-opacity:1;stroke-miterlimit:10;" d="M 25.210938 258.589844 L 36.3125 258.589844 L 36.3125 181.242188 L 25.210938 181.242188 Z M 25.210938 258.589844 "/>
<path style="fill-rule:nonzero;fill:rgb(47.843137%,81.960784%,31.764706%);fill-opacity:1;stroke-width:1.066978;stroke-linecap:butt;stroke-linejoin:round;stroke:rgb(80%,80%,80%);stroke-opacity:1;stroke-miterlimit:10;" d="M 107.863281 258.589844 L 118.964844 258.589844 L 118.964844 65.21875 L 107.863281 65.21875 Z M 107.863281 258.589844 "/>
<path style="fill-rule:nonzero;fill:rgb(12.156863%,59.607843%,54.509804%);fill-opacity:1;stroke-width:1.066978;stroke-linecap:butt;stroke-linejoin:round;stroke:rgb(80%,80%,80%);stroke-opacity:1;stroke-miterlimit:10;" d="M 96.761719 258.589844 L 107.863281 258.589844 L 107.863281 103.894531 L 96.761719 103.894531 Z M 96.761719 258.589844 "/>
<path style="fill-rule:nonzero;fill:rgb(22.352941%,33.72549%,54.901961%);fill-opacity:1;stroke-width:1.066978;stroke-linecap:butt;stroke-linejoin:round;stroke:rgb(80%,80%,80%);stroke-opacity:1;stroke-miterlimit:10;" d="M 85.65625 258.589844 L 96.757812 258.589844 L 96.757812 134.832031 L 85.65625 134.832031 Z M 85.65625 258.589844 "/>
<path style="fill-rule:nonzero;fill:rgb(26.666667%,0.392157%,32.941176%);fill-opacity:1;stroke-width:1.066978;stroke-linecap:butt;stroke-linejoin:round;stroke:rgb(80%,80%,80%);stroke-opacity:1;stroke-miterlimit:10;" d="M 74.554688 258.589844 L 85.65625 258.589844 L 85.65625 142.566406 L 74.554688 142.566406 Z M 74.554688 258.589844 "/>
<path style="fill-rule:nonzero;fill:rgb(47.843137%,81.960784%,31.764706%);fill-opacity:1;stroke-width:1.066978;stroke-linecap:butt;stroke-linejoin:round;stroke:rgb(80%,80%,80%);stroke-opacity:1;stroke-miterlimit:10;" d="M 157.207031 258.589844 L 168.308594 258.589844 L 168.308594 26.546875 L 157.207031 26.546875 Z M 157.207031 258.589844 "/>
<path style="fill-rule:nonzero;fill:rgb(12.156863%,59.607843%,54.509804%);fill-opacity:1;stroke-width:1.066978;stroke-linecap:butt;stroke-linejoin:round;stroke:rgb(80%,80%,80%);stroke-opacity:1;stroke-miterlimit:10;" d="M 146.105469 258.589844 L 157.207031 258.589844 L 157.207031 103.894531 L 146.105469 103.894531 Z M 146.105469 258.589844 "/>
<path style="fill-rule:nonzero;fill:rgb(22.352941%,33.72549%,54.901961%);fill-opacity:1;stroke-width:1.066978;stroke-linecap:butt;stroke-linejoin:round;stroke:rgb(80%,80%,80%);stroke-opacity:1;stroke-miterlimit:10;" d="M 135 258.589844 L 146.101562 258.589844 L 146.101562 119.363281 L 135 119.363281 Z M 135 258.589844 "/>
<path style="fill-rule:nonzero;fill:rgb(26.666667%,0.392157%,32.941176%);fill-opacity:1;stroke-width:1.066978;stroke-linecap:butt;stroke-linejoin:round;stroke:rgb(80%,80%,80%);stroke-opacity:1;stroke-miterlimit:10;" d="M 123.898438 258.589844 L 135 258.589844 L 135 84.558594 L 123.898438 84.558594 Z M 123.898438 258.589844 "/>
<path style="fill-rule:nonzero;fill:rgb(47.843137%,81.960784%,31.764706%);fill-opacity:1;stroke-width:1.066978;stroke-linecap:butt;stroke-linejoin:round;stroke:rgb(80%,80%,80%);stroke-opacity:1;stroke-miterlimit:10;" d="M 206.550781 258.589844 L 217.652344 258.589844 L 217.652344 127.097656 L 206.550781 127.097656 Z M 206.550781 258.589844 "/>
<path style="fill-rule:nonzero;fill:rgb(12.156863%,59.607843%,54.509804%);fill-opacity:1;stroke-width:1.066978;stroke-linecap:butt;stroke-linejoin:round;stroke:rgb(80%,80%,80%);stroke-opacity:1;stroke-miterlimit:10;" d="M 195.449219 258.589844 L 206.550781 258.589844 L 206.550781 72.953125 L 195.449219 72.953125 Z M 195.449219 258.589844 "/>
<path style="fill-rule:nonzero;fill:rgb(22.352941%,33.72549%,54.901961%);fill-opacity:1;stroke-width:1.066978;stroke-linecap:butt;stroke-linejoin:round;stroke:rgb(80%,80%,80%);stroke-opacity:1;stroke-miterlimit:10;" d="M 184.347656 258.589844 L 195.449219 258.589844 L 195.449219 26.546875 L 184.347656 26.546875 Z M 184.347656 258.589844 "/>
<path style="fill-rule:nonzero;fill:rgb(26.666667%,0.392157%,32.941176%);fill-opacity:1;stroke-width:1.066978;stroke-linecap:butt;stroke-linejoin:round;stroke:rgb(80%,80%,80%);stroke-opacity:1;stroke-miterlimit:10;" d="M 173.242188 258.589844 L 184.34375 258.589844 L 184.34375 34.28125 L 173.242188 34.28125 Z M 173.242188 258.589844 "/>
<path style="fill-rule:nonzero;fill:rgb(26.666667%,0.392157%,32.941176%);fill-opacity:1;stroke-width:1.066978;stroke-linecap:butt;stroke-linejoin:round;stroke:rgb(80%,80%,80%);stroke-opacity:1;stroke-miterlimit:10;" d="M 298.519531 258.589844 L 309.621094 258.589844 L 309.621094 34.28125 L 298.519531 34.28125 Z M 298.519531 258.589844 "/>
<path style="fill-rule:nonzero;fill:rgb(26.666667%,0.392157%,32.941176%);fill-opacity:1;stroke-width:1.066978;stroke-linecap:butt;stroke-linejoin:round;stroke:rgb(80%,80%,80%);stroke-opacity:1;stroke-miterlimit:10;" d="M 287.414062 258.589844 L 298.515625 258.589844 L 298.515625 84.558594 L 287.414062 84.558594 Z M 287.414062 258.589844 "/>
<path style="fill-rule:nonzero;fill:rgb(26.666667%,0.392157%,32.941176%);fill-opacity:1;stroke-width:1.066978;stroke-linecap:butt;stroke-linejoin:round;stroke:rgb(80%,80%,80%);stroke-opacity:1;stroke-miterlimit:10;" d="M 276.3125 258.589844 L 287.414062 258.589844 L 287.414062 142.566406 L 276.3125 142.566406 Z M 276.3125 258.589844 "/>
<path style="fill-rule:nonzero;fill:rgb(26.666667%,0.392157%,32.941176%);fill-opacity:1;stroke-width:1.066978;stroke-linecap:butt;stroke-linejoin:round;stroke:rgb(80%,80%,80%);stroke-opacity:1;stroke-miterlimit:10;" d="M 265.210938 258.589844 L 276.3125 258.589844 L 276.3125 181.242188 L 265.210938 181.242188 Z M 265.210938 258.589844 "/>
<path style="fill-rule:nonzero;fill:rgb(22.352941%,33.72549%,54.901961%);fill-opacity:1;stroke-width:1.066978;stroke-linecap:butt;stroke-linejoin:round;stroke:rgb(80%,80%,80%);stroke-opacity:1;stroke-miterlimit:10;" d="M 347.863281 258.589844 L 358.964844 258.589844 L 358.964844 26.546875 L 347.863281 26.546875 Z M 347.863281 258.589844 "/>
<path style="fill-rule:nonzero;fill:rgb(22.352941%,33.72549%,54.901961%);fill-opacity:1;stroke-width:1.066978;stroke-linecap:butt;stroke-linejoin:round;stroke:rgb(80%,80%,80%);stroke-opacity:1;stroke-miterlimit:10;" d="M 336.761719 258.589844 L 347.863281 258.589844 L 347.863281 119.363281 L 336.761719 119.363281 Z M 336.761719 258.589844 "/>
<path style="fill-rule:nonzero;fill:rgb(22.352941%,33.72549%,54.901961%);fill-opacity:1;stroke-width:1.066978;stroke-linecap:butt;stroke-linejoin:round;stroke:rgb(80%,80%,80%);stroke-opacity:1;stroke-miterlimit:10;" d="M 325.65625 258.589844 L 336.757812 258.589844 L 336.757812 134.832031 L 325.65625 134.832031 Z M 325.65625 258.589844 "/>
<path style="fill-rule:nonzero;fill:rgb(22.352941%,33.72549%,54.901961%);fill-opacity:1;stroke-width:1.066978;stroke-linecap:butt;stroke-linejoin:round;stroke:rgb(80%,80%,80%);stroke-opacity:1;stroke-miterlimit:10;" d="M 314.554688 258.589844 L 325.65625 258.589844 L 325.65625 142.566406 L 314.554688 142.566406 Z M 314.554688 258.589844 "/>
<path style="fill-rule:nonzero;fill:rgb(12.156863%,59.607843%,54.509804%);fill-opacity:1;stroke-width:1.066978;stroke-linecap:butt;stroke-linejoin:round;stroke:rgb(80%,80%,80%);stroke-opacity:1;stroke-miterlimit:10;" d="M 397.207031 258.589844 L 408.308594 258.589844 L 408.308594 72.953125 L 397.207031 72.953125 Z M 397.207031 258.589844 "/>
<path style="fill-rule:nonzero;fill:rgb(12.156863%,59.607843%,54.509804%);fill-opacity:1;stroke-width:1.066978;stroke-linecap:butt;stroke-linejoin:round;stroke:rgb(80%,80%,80%);stroke-opacity:1;stroke-miterlimit:10;" d="M 386.105469 258.589844 L 397.207031 258.589844 L 397.207031 103.894531 L 386.105469 103.894531 Z M 386.105469 258.589844 "/>
<path style="fill-rule:nonzero;fill:rgb(12.156863%,59.607843%,54.509804%);fill-opacity:1;stroke-width:1.066978;stroke-linecap:butt;stroke-linejoin:round;stroke:rgb(80%,80%,80%);stroke-opacity:1;stroke-miterlimit:10;" d="M 375 258.589844 L 386.101562 258.589844 L 386.101562 103.894531 L 375 103.894531 Z M 375 258.589844 "/>
<path style="fill-rule:nonzero;fill:rgb(12.156863%,59.607843%,54.509804%);fill-opacity:1;stroke-width:1.066978;stroke-linecap:butt;stroke-linejoin:round;stroke:rgb(80%,80%,80%);stroke-opacity:1;stroke-miterlimit:10;" d="M 363.898438 258.589844 L 375 258.589844 L 375 119.363281 L 363.898438 119.363281 Z M 363.898438 258.589844 "/>
<path style="fill-rule:nonzero;fill:rgb(47.843137%,81.960784%,31.764706%);fill-opacity:1;stroke-width:1.066978;stroke-linecap:butt;stroke-linejoin:round;stroke:rgb(80%,80%,80%);stroke-opacity:1;stroke-miterlimit:10;" d="M 446.550781 258.589844 L 457.652344 258.589844 L 457.652344 127.097656 L 446.550781 127.097656 Z M 446.550781 258.589844 "/>
<path style="fill-rule:nonzero;fill:rgb(47.843137%,81.960784%,31.764706%);fill-opacity:1;stroke-width:1.066978;stroke-linecap:butt;stroke-linejoin:round;stroke:rgb(80%,80%,80%);stroke-opacity:1;stroke-miterlimit:10;" d="M 435.449219 258.589844 L 446.550781 258.589844 L 446.550781 26.546875 L 435.449219 26.546875 Z M 435.449219 258.589844 "/>
<path style="fill-rule:nonzero;fill:rgb(47.843137%,81.960784%,31.764706%);fill-opacity:1;stroke-width:1.066978;stroke-linecap:butt;stroke-linejoin:round;stroke:rgb(80%,80%,80%);stroke-opacity:1;stroke-miterlimit:10;" d="M 424.347656 258.589844 L 435.449219 258.589844 L 435.449219 65.21875 L 424.347656 65.21875 Z M 424.347656 258.589844 "/>
<path style="fill-rule:nonzero;fill:rgb(47.843137%,81.960784%,31.764706%);fill-opacity:1;stroke-width:1.066978;stroke-linecap:butt;stroke-linejoin:round;stroke:rgb(80%,80%,80%);stroke-opacity:1;stroke-miterlimit:10;" d="M 413.242188 258.589844 L 424.34375 258.589844 L 424.34375 65.21875 L 413.242188 65.21875 Z M 413.242188 258.589844 "/>
<path style="fill:none;stroke-width:4.267913;stroke-linecap:butt;stroke-linejoin:round;stroke:rgb(26.666667%,0.392157%,32.941176%);stroke-opacity:1;stroke-miterlimit:1;" d="M 527.414062 258.589844 L 576.761719 200.578125 L 626.105469 113.5625 L 675.449219 38.148438 "/>
<path style="fill:none;stroke-width:4.267913;stroke-linecap:butt;stroke-linejoin:round;stroke:rgb(22.352941%,33.72549%,54.901961%);stroke-opacity:0.501961;stroke-miterlimit:1;" d="M 527.414062 200.578125 L 576.761719 188.976562 L 626.105469 165.773438 L 675.449219 26.546875 "/>
<path style="fill:none;stroke-width:4.267913;stroke-linecap:butt;stroke-linejoin:round;stroke:rgb(12.156863%,59.607843%,54.509804%);stroke-opacity:0.501961;stroke-miterlimit:1;" d="M 527.414062 165.773438 L 576.761719 142.566406 L 626.105469 142.566406 L 675.449219 96.160156 "/>
<path style="fill:none;stroke-width:4.267913;stroke-linecap:butt;stroke-linejoin:round;stroke:rgb(47.843137%,81.960784%,31.764706%);stroke-opacity:0.501961;stroke-miterlimit:1;" d="M 527.414062 84.558594 L 576.761719 84.558594 L 626.105469 26.546875 L 675.449219 177.375 "/>
</g>
</svg>
