<?xml version="1.0" encoding="UTF-8"?>
<svg xmlns="http://www.w3.org/2000/svg" xmlns:xlink="http://www.w3.org/1999/xlink" width="720pt" height="432pt" viewBox="0 0 720 432" version="1.1">
<g id="surface36">
<rect x="0" y="0" width="720" height="432" style="fill:rgb(100%,100%,100%);fill-opacity:1;stroke:none;"/>
<path style=" stroke:none;fill-rule:nonzero;fill:rgb(0%,0%,1.568627%);fill-opacity:1;" d="M 33.148438 396.042969 L 125.1875 396.042969 L 125.1875 33.089844 L 33.148438 33.089844 Z M 33.148438 396.042969 "/>
<path style=" stroke:none;fill-rule:nonzero;fill:rgb(73.333333%,21.568627%,32.941176%);fill-opacity:1;" d="M 135.414062 396.042969 L 227.453125 396.042969 L 227.453125 103.984375 L 135.414062 103.984375 Z M 135.414062 396.042969 "/>
<path style=" stroke:none;fill-rule:nonzero;fill:rgb(98.823529%,100%,64.313725%);fill-opacity:1;" d="M 237.679688 396.042969 L 329.71875 396.042969 L 329.71875 154.074219 L 237.679688 154.074219 Z M 237.679688 396.042969 "/>
<path style=" stroke:none;fill-rule:nonzero;fill:rgb(98.823529%,100%,64.313725%);fill-opacity:1;" d="M 541.433594 214.566406 L 545.910156 215.125 L 550.390625 215.6875 L 554.871094 216.246094 L 559.347656 216.804688 L 563.828125 217.363281 L 568.304688 217.921875 L 577.265625 219.039062 L 581.742188 219.597656 L 590.703125 220.714844 L 595.179688 221.273438 L 599.660156 221.835938 L 604.136719 222.394531 L 613.097656 223.511719 L 617.574219 224.070312 L 626.535156 225.1875 L 631.011719 225.746094 L 635.492188 226.304688 L 639.96875 226.863281 L 644.449219 227.425781 L 648.929688 227.984375 L 653.40625 228.542969 L 662.367188 229.660156 L 666.84375 230.21875 L 671.324219 230.777344 L 671.796875 226.367188 L 672.125 221.941406 L 672.296875 217.507812 L 672.324219 213.070312 L 672.195312 208.632812 L 671.921875 204.207031 L 671.496094 199.789062 L 670.917969 195.390625 L 670.195312 191.011719 L 669.320312 186.660156 L 668.304688 182.34375 L 667.136719 178.0625 L 665.828125 173.820312 L 664.375 169.628906 L 662.78125 165.488281 L 661.050781 161.402344 L 659.179688 157.378906 L 657.171875 153.421875 L 655.035156 149.535156 L 652.765625 145.722656 L 650.367188 141.988281 L 647.84375 138.335938 L 645.199219 134.773438 L 642.4375 131.304688 L 639.554688 127.929688 L 636.5625 124.652344 L 633.460938 121.480469 L 630.253906 118.414062 L 626.941406 115.460938 L 623.535156 112.617188 L 620.03125 109.894531 L 616.4375 107.289062 L 612.761719 104.808594 L 609 102.457031 L 605.160156 100.230469 L 601.25 98.136719 L 597.269531 96.175781 L 593.222656 94.351562 L 589.121094 92.664062 L 584.960938 91.117188 L 580.75 89.714844 L 576.496094 88.453125 L 572.203125 87.335938 L 567.871094 86.367188 L 563.511719 85.542969 L 559.128906 84.871094 L 554.722656 84.34375 L 550.300781 83.96875 L 545.867188 83.742188 L 541.433594 83.667969 Z M 541.433594 214.566406 "/>
<path style=" stroke:none;fill-rule:nonzero;fill:rgb(73.333333%,21.568627%,32.941176%);fill-opacity:1;" d="M 541.433594 214.566406 L 538.886719 218.296875 L 536.339844 222.023438 L 533.796875 225.75 L 531.25 229.476562 L 528.703125 233.207031 L 526.160156 236.933594 L 521.066406 244.386719 L 518.523438 248.113281 L 515.976562 251.84375 L 513.429688 255.570312 L 510.886719 259.296875 L 508.339844 263.023438 L 505.792969 266.753906 L 503.25 270.480469 L 498.15625 277.933594 L 495.613281 281.664062 L 490.519531 289.117188 L 487.976562 292.84375 L 485.429688 296.574219 L 482.882812 300.300781 L 480.339844 304.027344 L 477.792969 307.753906 L 475.246094 311.484375 L 472.703125 315.210938 L 467.609375 322.664062 L 471.339844 325.117188 L 475.148438 327.445312 L 479.035156 329.636719 L 482.992188 331.699219 L 487.019531 333.621094 L 491.109375 335.40625 L 495.257812 337.054688 L 499.460938 338.554688 L 503.714844 339.914062 L 508.007812 341.128906 L 512.34375 342.195312 L 516.710938 343.109375 L 521.105469 343.878906 L 525.527344 344.496094 L 529.964844 344.964844 L 534.417969 345.277344 L 538.875 345.441406 L 543.339844 345.453125 L 547.800781 345.3125 L 552.253906 345.019531 L 556.695312 344.574219 L 561.117188 343.976562 L 565.519531 343.230469 L 569.890625 342.335938 L 574.230469 341.292969 L 578.53125 340.101562 L 582.789062 338.761719 L 587 337.28125 L 591.15625 335.65625 L 595.253906 333.890625 L 599.289062 331.984375 L 603.257812 329.945312 L 607.15625 327.769531 L 610.976562 325.464844 L 614.71875 323.027344 L 618.371094 320.46875 L 621.9375 317.78125 L 625.410156 314.980469 L 628.785156 312.058594 L 632.058594 309.023438 L 635.222656 305.878906 L 638.28125 302.628906 L 641.226562 299.273438 L 644.058594 295.824219 L 646.769531 292.277344 L 649.355469 288.640625 L 651.820312 284.917969 L 654.152344 281.117188 L 656.355469 277.234375 L 658.425781 273.28125 L 660.359375 269.257812 L 662.152344 265.171875 L 663.808594 261.027344 L 665.320312 256.828125 L 666.691406 252.578125 L 667.914062 248.289062 L 668.988281 243.957031 L 669.917969 239.589844 L 670.695312 235.195312 L 671.324219 230.777344 L 666.84375 230.21875 L 662.367188 229.660156 L 653.40625 228.542969 L 648.929688 227.984375 L 644.449219 227.425781 L 639.96875 226.863281 L 635.492188 226.304688 L 631.011719 225.746094 L 626.535156 225.1875 L 617.574219 224.070312 L 613.097656 223.511719 L 604.136719 222.394531 L 599.660156 221.835938 L 595.179688 221.273438 L 590.703125 220.714844 L 581.742188 219.597656 L 577.265625 219.039062 L 568.304688 217.921875 L 563.828125 217.363281 L 559.347656 216.804688 L 554.871094 216.246094 L 550.390625 215.6875 L 545.910156 215.125 Z M 541.433594 214.566406 "/>
<path style=" stroke:none;fill-rule:nonzero;fill:rgb(0%,0%,1.568627%);fill-opacity:1;" d="M 541.433594 214.566406 L 541.433594 83.667969 L 536.996094 83.742188 L 532.5625 83.96875 L 528.144531 84.34375 L 523.738281 84.871094 L 519.351562 85.542969 L 514.992188 86.367188 L 510.660156 87.335938 L 506.367188 88.453125 L 502.113281 89.714844 L 497.902344 91.117188 L 493.746094 92.664062 L 489.640625 94.351562 L 485.597656 96.175781 L 481.613281 98.136719 L 477.703125 100.230469 L 473.863281 102.457031 L 470.105469 104.808594 L 466.425781 107.289062 L 462.832031 109.894531 L 459.328125 112.617188 L 455.921875 115.460938 L 452.613281 118.414062 L 449.402344 121.480469 L 446.300781 124.652344 L 443.308594 127.929688 L 440.429688 131.304688 L 437.664062 134.773438 L 435.019531 138.335938 L 432.496094 141.988281 L 430.101562 145.722656 L 427.832031 149.535156 L 425.691406 153.421875 L 423.6875 157.378906 L 421.816406 161.402344 L 420.082031 165.488281 L 418.488281 169.628906 L 417.035156 173.820312 L 415.726562 178.0625 L 414.5625 182.34375 L 413.542969 186.660156 L 412.667969 191.011719 L 411.945312 195.390625 L 411.371094 199.789062 L 410.945312 204.207031 L 410.667969 208.632812 L 410.542969 213.070312 L 410.566406 217.507812 L 410.742188 221.941406 L 411.066406 226.367188 L 411.539062 230.777344 L 412.164062 235.171875 L 412.9375 239.539062 L 413.855469 243.878906 L 414.925781 248.1875 L 416.136719 252.457031 L 417.492188 256.679688 L 418.992188 260.855469 L 420.628906 264.980469 L 422.40625 269.046875 L 424.324219 273.046875 L 426.371094 276.984375 L 428.554688 280.847656 L 430.863281 284.636719 L 433.304688 288.34375 L 435.867188 291.964844 L 438.550781 295.5 L 441.351562 298.9375 L 444.269531 302.28125 L 447.296875 305.523438 L 450.433594 308.664062 L 453.675781 311.695312 L 457.019531 314.613281 L 460.457031 317.414062 L 463.988281 320.101562 L 467.609375 322.664062 L 472.703125 315.210938 L 475.246094 311.484375 L 477.792969 307.753906 L 480.339844 304.027344 L 482.882812 300.300781 L 485.429688 296.574219 L 487.976562 292.84375 L 490.519531 289.117188 L 495.613281 281.664062 L 498.15625 277.933594 L 503.25 270.480469 L 505.792969 266.753906 L 508.339844 263.023438 L 510.886719 259.296875 L 513.429688 255.570312 L 515.976562 251.84375 L 518.523438 248.113281 L 521.066406 244.386719 L 526.160156 236.933594 L 528.703125 233.207031 L 531.25 229.476562 L 533.796875 225.75 L 536.339844 222.023438 L 538.886719 218.296875 Z M 541.433594 214.566406 "/>
</g>
</svg>
