<?xml version="1.0" encoding="UTF-8"?>
<svg xmlns="http://www.w3.org/2000/svg" xmlns:xlink="http://www.w3.org/1999/xlink" width="720pt" height="432pt" viewBox="0 0 720 432" version="1.1">
<defs>
<clipPath id="clip1">
  <path d="M 17.683594 14.945313 L 346.054688 14.945313 L 346.054688 415.316406 L 17.683594 415.316406 Z M 17.683594 14.945313 "/>
</clipPath>
<clipPath id="clip2">
  <path d="M 377.683594 50.945313 L 706.054688 50.945313 L 706.054688 379.316406 L 377.683594 379.316406 Z M 377.683594 50.945313 "/>
</clipPath>
</defs>
<g id="surface39">
<rect x="0" y="0" width="720" height="432" style="fill:rgb(100%,100%,100%);fill-opacity:1;stroke:none;"/>
<g clip-path="url(#clip1)" clip-rule="nonzero">
<path style=" stroke:none;fill-rule:nonzero;fill:rgb(0%,0%,1.568627%);fill-opacity:1;" d="M 21.140625 396.164063 L 41.890625 396.164063 L 41.890625 183.414063 L 21.140625 183.414063 Z M 21.140625 396.164063 "/>
<path style=" stroke:none;fill-rule:nonzero;fill:rgb(5.882353%,3.529412%,17.254902%);fill-opacity:1;" d="M 44.195313 396.164063 L 64.945313 396.164063 L 64.945313 292.101563 L 44.195313 292.101563 Z M 44.195313 396.164063 "/>
<path style=" stroke:none;fill-rule:nonzero;fill:rgb(17.647059%,4.313725%,35.294118%);fill-opacity:1;" d="M 67.25 396.164063 L 88 396.164063 L 88 237.371094 L 67.25 237.371094 Z M 67.25 396.164063 "/>
<path style=" stroke:none;fill-rule:nonzero;fill:rgb(30.980392%,5.098039%,42.352941%);fill-opacity:1;" d="M 90.304688 396.164063 L 111.054688 396.164063 L 111.054688 178.785156 L 90.304688 178.785156 Z M 90.304688 396.164063 "/>
<path style=" stroke:none;fill-rule:nonzero;fill:rgb(43.137255%,9.411765%,43.137255%);fill-opacity:1;" d="M 113.359375 396.164063 L 134.109375 396.164063 L 134.109375 156.433594 L 113.359375 156.433594 Z M 113.359375 396.164063 "/>
<path style=" stroke:none;fill-rule:nonzero;fill:rgb(55.294118%,13.72549%,41.176471%);fill-opacity:1;" d="M 136.414063 396.164063 L 157.164063 396.164063 L 157.164063 227.351563 L 136.414063 227.351563 Z M 136.414063 396.164063 "/>
<path style=" stroke:none;fill-rule:nonzero;fill:rgb(67.843137%,18.823529%,36.470588%);fill-opacity:1;" d="M 159.46875 396.164063 L 180.21875 396.164063 L 180.21875 33.097656 L 159.46875 33.097656 Z M 159.46875 396.164063 "/>
<path style=" stroke:none;fill-rule:nonzero;fill:rgb(78.823529%,24.705882%,29.411765%);fill-opacity:1;" d="M 182.523438 396.164063 L 203.273438 396.164063 L 203.273438 289.015625 L 182.523438 289.015625 Z M 182.523438 396.164063 "/>
<path style=" stroke:none;fill-rule:nonzero;fill:rgb(88.235294%,33.72549%,20.784314%);fill-opacity:1;" d="M 205.578125 396.164063 L 226.328125 396.164063 L 226.328125 245.851563 L 205.578125 245.851563 Z M 205.578125 396.164063 "/>
<path style=" stroke:none;fill-rule:nonzero;fill:rgb(94.509804%,45.490196%,10.980392%);fill-opacity:1;" d="M 228.632813 396.164063 L 249.382813 396.164063 L 249.382813 262.808594 L 228.632813 262.808594 Z M 228.632813 396.164063 "/>
<path style=" stroke:none;fill-rule:nonzero;fill:rgb(98.431373%,58.823529%,2.352941%);fill-opacity:1;" d="M 251.6875 396.164063 L 272.4375 396.164063 L 272.4375 271.289063 L 251.6875 271.289063 Z M 251.6875 396.164063 "/>
<path style=" stroke:none;fill-rule:nonzero;fill:rgb(98.431373%,73.72549%,12.941176%);fill-opacity:1;" d="M 274.738281 396.164063 L 295.488281 396.164063 L 295.488281 104.015625 L 274.738281 104.015625 Z M 274.738281 396.164063 "/>
<path style=" stroke:none;fill-rule:nonzero;fill:rgb(95.686275%,88.627451%,34.509804%);fill-opacity:1;" d="M 297.792969 396.164063 L 318.542969 396.164063 L 318.542969 208.851563 L 297.792969 208.851563 Z M 297.792969 396.164063 "/>
<path style=" stroke:none;fill-rule:nonzero;fill:rgb(98.823529%,100%,64.313725%);fill-opacity:1;" d="M 320.847656 396.164063 L 341.597656 396.164063 L 341.597656 154.121094 L 320.847656 154.121094 Z M 320.847656 396.164063 "/>
</g>
<g clip-path="url(#clip2)" clip-rule="nonzero">
<path style=" stroke:none;fill-rule:nonzero;fill:rgb(98.823529%,100%,64.313725%);fill-opacity:1;" d="M 541.371094 214.628906 L 543.78125 210.8125 L 546.1875 206.992188 L 548.597656 203.171875 L 551.007813 199.355469 L 553.417969 195.535156 L 555.828125 191.71875 L 560.648438 184.078125 L 563.054688 180.261719 L 565.464844 176.441406 L 567.875 172.625 L 572.695313 164.984375 L 575.105469 161.167969 L 577.515625 157.347656 L 579.921875 153.527344 L 582.332031 149.710938 L 584.742188 145.890625 L 587.152344 142.074219 L 591.972656 134.433594 L 594.382813 130.617188 L 596.789063 126.796875 L 599.199219 122.976563 L 601.609375 119.160156 L 604.019531 115.339844 L 606.429688 111.523438 L 611.25 103.882813 L 607.308594 101.496094 L 603.289063 99.246094 L 599.191406 97.140625 L 595.023438 95.179688 L 590.789063 93.363281 L 586.492188 91.703125 L 582.140625 90.191406 L 577.738281 88.832031 L 573.292969 87.632813 L 568.804688 86.585938 L 564.285156 85.703125 L 559.738281 84.976563 L 555.164063 84.410156 L 550.574219 84.003906 L 545.976563 83.761719 L 541.371094 83.679688 Z M 541.371094 214.628906 "/>
<path style=" stroke:none;fill-rule:nonzero;fill:rgb(95.686275%,88.627451%,34.509804%);fill-opacity:1;" d="M 541.371094 214.628906 L 545.164063 212.183594 L 560.351563 202.402344 L 564.144531 199.957031 L 575.535156 192.621094 L 579.328125 190.175781 L 590.71875 182.839844 L 594.511719 180.394531 L 609.699219 170.613281 L 613.492188 168.167969 L 624.882813 160.832031 L 628.675781 158.386719 L 640.066406 151.050781 L 643.859375 148.605469 L 647.65625 146.15625 L 651.453125 143.710938 L 648.808594 139.765625 L 646.019531 135.914063 L 643.09375 132.167969 L 640.035156 128.53125 L 636.84375 125.007813 L 633.527344 121.601563 L 630.089844 118.316406 L 626.535156 115.160156 L 622.871094 112.136719 L 619.097656 109.246094 L 615.222656 106.492188 L 611.25 103.882813 L 606.429688 111.523438 L 604.019531 115.339844 L 601.609375 119.160156 L 599.199219 122.976563 L 596.789063 126.796875 L 594.382813 130.617188 L 591.972656 134.433594 L 587.152344 142.074219 L 584.742188 145.890625 L 582.332031 149.710938 L 579.921875 153.527344 L 577.515625 157.347656 L 575.105469 161.167969 L 572.695313 164.984375 L 567.875 172.625 L 565.464844 176.441406 L 563.054688 180.261719 L 560.648438 184.078125 L 555.828125 191.71875 L 553.417969 195.535156 L 551.007813 199.355469 L 548.597656 203.171875 L 546.1875 206.992188 L 543.78125 210.8125 Z M 541.371094 214.628906 "/>
<path style=" stroke:none;fill-rule:nonzero;fill:rgb(98.431373%,73.72549%,12.941176%);fill-opacity:1;" d="M 541.371094 214.628906 L 545.859375 215.113281 L 550.347656 215.59375 L 554.839844 216.078125 L 559.328125 216.5625 L 563.816406 217.042969 L 568.308594 217.527344 L 572.796875 218.007813 L 577.285156 218.492188 L 581.777344 218.976563 L 586.265625 219.457031 L 590.753906 219.941406 L 595.246094 220.421875 L 599.734375 220.90625 L 604.222656 221.386719 L 608.714844 221.871094 L 613.203125 222.355469 L 617.691406 222.835938 L 622.183594 223.320313 L 626.671875 223.800781 L 631.160156 224.285156 L 635.652344 224.765625 L 644.628906 225.734375 L 649.121094 226.214844 L 653.609375 226.699219 L 658.097656 227.179688 L 662.589844 227.664063 L 667.078125 228.148438 L 671.570313 228.628906 L 671.96875 224.199219 L 672.21875 219.757813 L 672.316406 215.3125 L 672.265625 210.863281 L 672.0625 206.417969 L 671.707031 201.984375 L 671.203125 197.566406 L 670.546875 193.167969 L 669.746094 188.792969 L 668.792969 184.445313 L 667.695313 180.136719 L 666.449219 175.863281 L 665.0625 171.640625 L 663.527344 167.464844 L 661.855469 163.339844 L 660.046875 159.277344 L 658.097656 155.28125 L 656.015625 151.351563 L 653.796875 147.492188 L 651.453125 143.710938 L 647.65625 146.15625 L 643.859375 148.605469 L 640.066406 151.050781 L 628.675781 158.386719 L 624.882813 160.832031 L 613.492188 168.167969 L 609.699219 170.613281 L 594.511719 180.394531 L 590.71875 182.839844 L 579.328125 190.175781 L 575.535156 192.621094 L 564.144531 199.957031 L 560.351563 202.402344 L 545.164063 212.183594 Z M 541.371094 214.628906 "/>
<path style=" stroke:none;fill-rule:nonzero;fill:rgb(98.431373%,58.823529%,2.352941%);fill-opacity:1;" d="M 541.371094 214.628906 L 545.535156 216.378906 L 549.695313 218.125 L 553.859375 219.875 L 558.023438 221.621094 L 562.1875 223.371094 L 566.351563 225.117188 L 570.511719 226.867188 L 574.675781 228.613281 L 578.839844 230.363281 L 583.003906 232.109375 L 587.167969 233.859375 L 591.332031 235.605469 L 595.492188 237.355469 L 599.65625 239.101563 L 603.820313 240.851563 L 607.984375 242.597656 L 612.148438 244.347656 L 616.3125 246.09375 L 620.472656 247.84375 L 624.636719 249.589844 L 628.800781 251.339844 L 632.964844 253.085938 L 641.292969 256.585938 L 645.453125 258.332031 L 649.617188 260.082031 L 653.78125 261.828125 L 657.945313 263.578125 L 662.109375 265.324219 L 663.867188 260.910156 L 665.46875 256.433594 L 666.902344 251.902344 L 668.171875 247.320313 L 669.277344 242.699219 L 670.210938 238.035156 L 670.972656 233.34375 L 671.570313 228.628906 L 667.078125 228.148438 L 662.589844 227.664063 L 658.097656 227.179688 L 653.609375 226.699219 L 649.121094 226.214844 L 644.628906 225.734375 L 635.652344 224.765625 L 631.160156 224.285156 L 626.671875 223.800781 L 622.183594 223.320313 L 617.691406 222.835938 L 613.203125 222.355469 L 608.714844 221.871094 L 604.222656 221.386719 L 599.734375 220.90625 L 595.246094 220.421875 L 590.753906 219.941406 L 586.265625 219.457031 L 581.777344 218.976563 L 577.285156 218.492188 L 572.796875 218.007813 L 568.308594 217.527344 L 563.816406 217.042969 L 559.328125 216.5625 L 554.839844 216.078125 L 550.347656 215.59375 L 545.859375 215.113281 Z M 541.371094 214.628906 "/>
<path style=" stroke:none;fill-rule:nonzero;fill:rgb(94.509804%,45.490196%,10.980392%);fill-opacity:1;" d="M 541.371094 214.628906 L 544.800781 217.566406 L 548.234375 220.5 L 551.664063 223.4375 L 555.09375 226.371094 L 558.527344 229.304688 L 561.957031 232.242188 L 565.390625 235.175781 L 568.820313 238.113281 L 572.25 241.046875 L 575.683594 243.984375 L 579.113281 246.917969 L 582.546875 249.851563 L 585.976563 252.789063 L 589.40625 255.722656 L 592.839844 258.660156 L 596.269531 261.59375 L 599.703125 264.53125 L 603.132813 267.464844 L 606.566406 270.398438 L 609.996094 273.335938 L 613.425781 276.269531 L 616.859375 279.207031 L 620.289063 282.140625 L 623.722656 285.078125 L 630.582031 290.945313 L 634.015625 293.882813 L 637.445313 296.816406 L 640.878906 299.753906 L 643.75 296.273438 L 646.503906 292.699219 L 649.128906 289.03125 L 651.628906 285.273438 L 653.996094 281.433594 L 656.230469 277.511719 L 658.332031 273.519531 L 660.289063 269.453125 L 662.109375 265.324219 L 657.945313 263.578125 L 653.78125 261.828125 L 649.617188 260.082031 L 645.453125 258.332031 L 641.292969 256.585938 L 632.964844 253.085938 L 628.800781 251.339844 L 624.636719 249.589844 L 620.472656 247.84375 L 616.3125 246.09375 L 612.148438 244.347656 L 607.984375 242.597656 L 603.820313 240.851563 L 599.65625 239.101563 L 595.492188 237.355469 L 591.332031 235.605469 L 587.167969 233.859375 L 583.003906 232.109375 L 578.839844 230.363281 L 574.675781 228.613281 L 570.511719 226.867188 L 566.351563 225.117188 L 562.1875 223.371094 L 558.023438 221.621094 L 553.859375 219.875 L 549.695313 218.125 L 545.535156 216.378906 Z M 541.371094 214.628906 "/>
<path style=" stroke:none;fill-rule:nonzero;fill:rgb(88.235294%,33.72549%,20.784314%);fill-opacity:1;" d="M 541.371094 214.628906 L 545.808594 222.496094 L 548.023438 226.429688 L 550.242188 230.363281 L 552.460938 234.292969 L 563.554688 253.960938 L 565.773438 257.890625 L 576.867188 277.558594 L 579.085938 281.488281 L 581.300781 285.421875 L 590.175781 301.15625 L 592.394531 305.085938 L 603.488281 324.753906 L 605.707031 328.683594 L 609.652344 326.367188 L 613.515625 323.910156 L 617.292969 321.324219 L 620.972656 318.605469 L 624.558594 315.757813 L 628.042969 312.789063 L 631.421875 309.703125 L 634.6875 306.496094 L 637.839844 303.179688 L 640.878906 299.753906 L 637.445313 296.816406 L 634.015625 293.882813 L 630.582031 290.945313 L 623.722656 285.078125 L 620.289063 282.140625 L 616.859375 279.207031 L 613.425781 276.269531 L 609.996094 273.335938 L 606.566406 270.398438 L 603.132813 267.464844 L 599.703125 264.53125 L 596.269531 261.59375 L 592.839844 258.660156 L 589.40625 255.722656 L 585.976563 252.789063 L 582.546875 249.851563 L 579.113281 246.917969 L 575.683594 243.984375 L 572.25 241.046875 L 568.820313 238.113281 L 565.390625 235.175781 L 561.957031 232.242188 L 558.527344 229.304688 L 555.09375 226.371094 L 551.664063 223.4375 L 548.234375 220.5 L 544.800781 217.566406 Z M 541.371094 214.628906 "/>
<path style=" stroke:none;fill-rule:nonzero;fill:rgb(78.823529%,24.705882%,29.411765%);fill-opacity:1;" d="M 541.371094 214.628906 L 544.910156 227.707031 L 546.089844 232.0625 L 549.628906 245.140625 L 550.8125 249.5 L 551.992188 253.855469 L 556.710938 271.292969 L 557.890625 275.648438 L 561.429688 288.726563 L 562.613281 293.085938 L 563.792969 297.441406 L 567.332031 310.519531 L 568.511719 314.875 L 573.230469 332.3125 L 574.414063 336.667969 L 575.59375 341.027344 L 580.070313 339.730469 L 584.496094 338.273438 L 588.871094 336.660156 L 593.183594 334.890625 L 597.429688 332.972656 L 601.605469 330.902344 L 605.707031 328.683594 L 603.488281 324.753906 L 592.394531 305.085938 L 590.175781 301.15625 L 581.300781 285.421875 L 579.085938 281.488281 L 576.867188 277.558594 L 565.773438 257.890625 L 563.554688 253.960938 L 552.460938 234.292969 L 550.242188 230.363281 L 548.023438 226.429688 L 545.808594 222.496094 Z M 541.371094 214.628906 "/>
<path style=" stroke:none;fill-rule:nonzero;fill:rgb(67.843137%,18.823529%,36.470588%);fill-opacity:1;" d="M 541.371094 214.628906 L 538.894531 218.40625 L 536.421875 222.183594 L 533.945313 225.960938 L 529 233.515625 L 526.523438 237.292969 L 524.050781 241.070313 L 521.574219 244.847656 L 516.628906 252.402344 L 514.152344 256.179688 L 511.679688 259.957031 L 509.203125 263.734375 L 506.730469 267.511719 L 504.253906 271.289063 L 499.308594 278.84375 L 496.832031 282.621094 L 494.359375 286.398438 L 491.882813 290.175781 L 486.9375 297.730469 L 484.460938 301.507813 L 481.988281 305.285156 L 479.511719 309.0625 L 477.039063 312.839844 L 474.5625 316.617188 L 469.617188 324.171875 L 473.511719 326.625 L 477.496094 328.945313 L 481.554688 331.121094 L 485.6875 333.152344 L 489.890625 335.035156 L 494.160156 336.773438 L 498.484375 338.359375 L 502.863281 339.789063 L 507.289063 341.066406 L 511.757813 342.1875 L 516.261719 343.148438 L 520.796875 343.953125 L 525.359375 344.597656 L 529.941406 345.078125 L 534.535156 345.402344 L 539.140625 345.558594 L 543.746094 345.558594 L 548.351563 345.394531 L 552.945313 345.066406 L 557.527344 344.578125 L 562.085938 343.929688 L 566.621094 343.121094 L 571.125 342.152344 L 575.59375 341.027344 L 574.414063 336.667969 L 573.230469 332.3125 L 568.511719 314.875 L 567.332031 310.519531 L 563.792969 297.441406 L 562.613281 293.085938 L 561.429688 288.726563 L 557.890625 275.648438 L 556.710938 271.292969 L 551.992188 253.855469 L 550.8125 249.5 L 549.628906 245.140625 L 546.089844 232.0625 L 544.910156 227.707031 Z M 541.371094 214.628906 "/>
<path style=" stroke:none;fill-rule:nonzero;fill:rgb(55.294118%,13.72549%,41.176471%);fill-opacity:1;" d="M 541.371094 214.628906 L 537.640625 217.171875 L 533.90625 219.714844 L 530.175781 222.261719 L 518.984375 229.890625 L 515.25 232.433594 L 496.597656 245.148438 L 492.863281 247.691406 L 485.402344 252.777344 L 481.671875 255.324219 L 474.210938 260.410156 L 470.476563 262.953125 L 451.824219 275.667969 L 448.089844 278.210938 L 433.167969 288.382813 L 435.867188 292.199219 L 438.703125 295.914063 L 441.667969 299.527344 L 444.761719 303.027344 L 447.976563 306.417969 L 451.3125 309.695313 L 454.761719 312.847656 L 458.320313 315.875 L 461.984375 318.773438 L 465.753906 321.539063 L 469.617188 324.171875 L 474.5625 316.617188 L 477.039063 312.839844 L 479.511719 309.0625 L 481.988281 305.285156 L 484.460938 301.507813 L 486.9375 297.730469 L 491.882813 290.175781 L 494.359375 286.398438 L 496.832031 282.621094 L 499.308594 278.84375 L 504.253906 271.289063 L 506.730469 267.511719 L 509.203125 263.734375 L 511.679688 259.957031 L 514.152344 256.179688 L 516.628906 252.402344 L 521.574219 244.847656 L 524.050781 241.070313 L 526.523438 237.292969 L 529 233.515625 L 533.945313 225.960938 L 536.421875 222.183594 L 538.894531 218.40625 Z M 541.371094 214.628906 "/>
<path style=" stroke:none;fill-rule:nonzero;fill:rgb(43.137255%,9.411765%,43.137255%);fill-opacity:1;" d="M 541.371094 214.628906 L 536.859375 214.8125 L 532.347656 215 L 500.765625 216.285156 L 496.253906 216.472656 L 469.183594 217.574219 L 464.671875 217.761719 L 433.089844 219.046875 L 428.578125 219.234375 L 410.53125 219.96875 L 410.796875 224.523438 L 411.21875 229.066406 L 411.800781 233.59375 L 412.539063 238.09375 L 413.4375 242.566406 L 414.488281 247.007813 L 415.691406 251.410156 L 417.050781 255.765625 L 418.558594 260.070313 L 420.214844 264.320313 L 422.019531 268.511719 L 423.96875 272.636719 L 426.0625 276.691406 L 428.292969 280.671875 L 430.664063 284.570313 L 433.167969 288.382813 L 448.089844 278.210938 L 451.824219 275.667969 L 470.476563 262.953125 L 474.210938 260.410156 L 481.671875 255.324219 L 485.402344 252.777344 L 492.863281 247.691406 L 496.597656 245.148438 L 515.25 232.433594 L 518.984375 229.890625 L 530.175781 222.261719 L 533.90625 219.714844 L 537.640625 217.171875 Z M 541.371094 214.628906 "/>
<path style=" stroke:none;fill-rule:nonzero;fill:rgb(30.980392%,5.098039%,42.352941%);fill-opacity:1;" d="M 541.371094 214.628906 L 537.332031 212.605469 L 529.261719 208.558594 L 525.222656 206.535156 L 517.152344 202.488281 L 513.113281 200.464844 L 509.078125 198.441406 L 505.039063 196.414063 L 496.96875 192.367188 L 492.929688 190.34375 L 484.859375 186.296875 L 480.820313 184.273438 L 472.75 180.226563 L 468.710938 178.203125 L 464.675781 176.179688 L 460.640625 174.152344 L 456.601563 172.128906 L 452.566406 170.105469 L 448.527344 168.082031 L 440.457031 164.035156 L 436.417969 162.011719 L 428.347656 157.964844 L 424.308594 155.941406 L 422.265625 160.203125 L 420.378906 164.539063 L 418.652344 168.941406 L 417.082031 173.398438 L 415.671875 177.914063 L 414.429688 182.476563 L 413.351563 187.078125 L 412.441406 191.71875 L 411.699219 196.386719 L 411.125 201.082031 L 410.71875 205.792969 L 410.484375 210.515625 L 410.421875 215.242188 L 410.53125 219.96875 L 428.578125 219.234375 L 433.089844 219.046875 L 464.671875 217.761719 L 469.183594 217.574219 L 496.253906 216.472656 L 500.765625 216.285156 L 532.347656 215 L 536.859375 214.8125 Z M 541.371094 214.628906 "/>
<path style=" stroke:none;fill-rule:nonzero;fill:rgb(17.647059%,4.313725%,35.294118%);fill-opacity:1;" d="M 541.371094 214.628906 L 535.300781 207.941406 L 532.269531 204.597656 L 526.199219 197.910156 L 523.167969 194.5625 L 514.0625 184.53125 L 511.03125 181.1875 L 507.996094 177.84375 L 504.960938 174.496094 L 501.929688 171.152344 L 495.859375 164.464844 L 492.828125 161.121094 L 486.757813 154.433594 L 483.726563 151.085938 L 474.621094 141.054688 L 471.589844 137.710938 L 468.554688 134.367188 L 465.519531 131.019531 L 462.488281 127.675781 L 456.417969 120.988281 L 453.386719 117.644531 L 449.863281 120.957031 L 446.46875 124.402344 L 443.203125 127.964844 L 440.070313 131.648438 L 437.074219 135.445313 L 434.222656 139.351563 L 431.515625 143.359375 L 428.960938 147.460938 L 426.554688 151.65625 L 424.308594 155.941406 L 428.347656 157.964844 L 436.417969 162.011719 L 440.457031 164.035156 L 448.527344 168.082031 L 452.566406 170.105469 L 456.601563 172.128906 L 460.640625 174.152344 L 464.675781 176.179688 L 468.710938 178.203125 L 472.75 180.226563 L 480.820313 184.273438 L 484.859375 186.296875 L 492.929688 190.34375 L 496.96875 192.367188 L 505.039063 196.414063 L 509.078125 198.441406 L 513.113281 200.464844 L 517.152344 202.488281 L 525.222656 206.535156 L 529.261719 208.558594 L 537.332031 212.605469 Z M 541.371094 214.628906 "/>
<path style=" stroke:none;fill-rule:nonzero;fill:rgb(5.882353%,3.529412%,17.254902%);fill-opacity:1;" d="M 541.371094 214.628906 L 537.082031 206.683594 L 534.9375 202.707031 L 530.648438 194.761719 L 528.503906 190.785156 L 526.363281 186.8125 L 524.21875 182.839844 L 522.074219 178.863281 L 517.785156 170.917969 L 515.640625 166.941406 L 511.351563 158.996094 L 509.207031 155.019531 L 507.066406 151.046875 L 504.921875 147.074219 L 502.777344 143.097656 L 498.488281 135.152344 L 496.34375 131.175781 L 492.054688 123.230469 L 489.914063 119.253906 L 487.769531 115.28125 L 485.625 111.304688 L 481.335938 103.359375 L 479.191406 99.382813 L 475.246094 101.601563 L 471.378906 103.957031 L 467.59375 106.441406 L 463.898438 109.054688 L 460.296875 111.796875 L 456.789063 114.660156 L 453.386719 117.644531 L 456.417969 120.988281 L 462.488281 127.675781 L 465.519531 131.019531 L 468.554688 134.367188 L 471.589844 137.710938 L 474.621094 141.054688 L 483.726563 151.085938 L 486.757813 154.433594 L 492.828125 161.121094 L 495.859375 164.464844 L 501.929688 171.152344 L 504.960938 174.496094 L 507.996094 177.84375 L 511.03125 181.1875 L 514.0625 184.53125 L 523.167969 194.5625 L 526.199219 197.910156 L 532.269531 204.597656 L 535.300781 207.941406 Z M 541.371094 214.628906 "/>
<path style=" stroke:none;fill-rule:nonzero;fill:rgb(0%,0%,1.568627%);fill-opacity:1;" d="M 541.371094 214.628906 L 541.371094 83.679688 L 536.742188 83.761719 L 532.121094 84.007813 L 527.511719 84.417969 L 522.921875 84.988281 L 518.351563 85.71875 L 513.8125 86.613281 L 509.304688 87.667969 L 504.839844 88.878906 L 500.417969 90.25 L 496.050781 91.773438 L 491.738281 93.453125 L 487.484375 95.28125 L 483.300781 97.257813 L 479.191406 99.382813 L 481.335938 103.359375 L 485.625 111.304688 L 487.769531 115.28125 L 489.914063 119.253906 L 492.054688 123.230469 L 496.34375 131.175781 L 498.488281 135.152344 L 502.777344 143.097656 L 504.921875 147.074219 L 507.066406 151.046875 L 509.207031 155.019531 L 511.351563 158.996094 L 515.640625 166.941406 L 517.785156 170.917969 L 522.074219 178.863281 L 524.21875 182.839844 L 526.363281 186.8125 L 528.503906 190.785156 L 530.648438 194.761719 L 534.9375 202.707031 L 537.082031 206.683594 Z M 541.371094 214.628906 "/>
</g>
</g>
</svg>
