<?xml version="1.0" encoding="UTF-8"?>
<svg xmlns="http://www.w3.org/2000/svg" xmlns:xlink="http://www.w3.org/1999/xlink" width="720pt" height="432pt" viewBox="0 0 720 432" version="1.1">
<defs>
<clipPath id="clip1">
  <path d="M 17.683594 14.945313 L 346.054688 14.945313 L 346.054688 415.316406 L 17.683594 415.316406 Z M 17.683594 14.945313 "/>
</clipPath>
<clipPath id="clip2">
  <path d="M 377.683594 50.945313 L 706.054688 50.945313 L 706.054688 379.316406 L 377.683594 379.316406 Z M 377.683594 50.945313 "/>
</clipPath>
</defs>
<g id="surface34">
<rect x="0" y="0" width="720" height="432" style="fill:rgb(100%,100%,100%);fill-opacity:1;stroke:none;"/>
<g clip-path="url(#clip1)" clip-rule="nonzero">
<path style=" stroke:none;fill-rule:nonzero;fill:rgb(0%,0%,1.568627%);fill-opacity:1;" d="M 33.027344 396.164063 L 125.101563 396.164063 L 125.101563 33.097656 L 33.027344 33.097656 Z M 33.027344 396.164063 "/>
<path style=" stroke:none;fill-rule:nonzero;fill:rgb(73.333333%,21.568627%,32.941176%);fill-opacity:1;" d="M 135.332031 396.164063 L 227.40625 396.164063 L 227.40625 104.015625 L 135.332031 104.015625 Z M 135.332031 396.164063 "/>
<path style=" stroke:none;fill-rule:nonzero;fill:rgb(98.823529%,100%,64.313725%);fill-opacity:1;" d="M 237.636719 396.164063 L 329.710938 396.164063 L 329.710938 154.121094 L 237.636719 154.121094 Z M 237.636719 396.164063 "/>
</g>
<g clip-path="url(#clip2)" clip-rule="nonzero">
<path style=" stroke:none;fill-rule:nonzero;fill:rgb(98.823529%,100%,64.313725%);fill-opacity:1;" d="M 541.371094 214.628906 L 545.851563 215.1875 L 550.332031 215.75 L 577.214844 219.101563 L 581.695313 219.664063 L 595.136719 221.339844 L 599.621094 221.898438 L 604.101563 222.457031 L 608.582031 223.019531 L 635.464844 226.371094 L 639.945313 226.933594 L 662.347656 229.726563 L 666.832031 230.285156 L 671.3125 230.847656 L 671.785156 226.433594 L 672.109375 222.003906 L 672.285156 217.570313 L 672.308594 213.132813 L 672.183594 208.695313 L 671.90625 204.265625 L 671.480469 199.847656 L 670.90625 195.445313 L 670.179688 191.066406 L 669.308594 186.714844 L 668.289063 182.394531 L 667.125 178.109375 L 665.8125 173.867188 L 664.359375 169.675781 L 662.765625 165.53125 L 661.03125 161.445313 L 659.160156 157.421875 L 657.152344 153.460938 L 655.015625 149.574219 L 652.746094 145.757813 L 650.347656 142.023438 L 647.824219 138.371094 L 645.175781 134.808594 L 642.410156 131.335938 L 639.53125 127.957031 L 636.535156 124.679688 L 633.433594 121.507813 L 630.222656 118.441406 L 626.914063 115.484375 L 623.503906 112.640625 L 620 109.917969 L 616.40625 107.3125 L 612.726563 104.832031 L 608.964844 102.476563 L 605.121094 100.25 L 601.210938 98.152344 L 597.226563 96.191406 L 593.179688 94.367188 L 589.074219 92.679688 L 584.914063 91.132813 L 580.703125 89.726563 L 576.449219 88.46875 L 572.152344 87.351563 L 567.820313 86.378906 L 563.457031 85.558594 L 559.070313 84.882813 L 554.664063 84.359375 L 550.242188 83.980469 L 545.808594 83.757813 L 541.371094 83.679688 Z M 541.371094 214.628906 "/>
<path style=" stroke:none;fill-rule:nonzero;fill:rgb(73.333333%,21.568627%,32.941176%);fill-opacity:1;" d="M 541.371094 214.628906 L 536.277344 222.089844 L 533.730469 225.816406 L 531.183594 229.546875 L 528.636719 233.273438 L 523.542969 240.734375 L 520.996094 244.460938 L 518.449219 248.191406 L 515.90625 251.917969 L 510.8125 259.378906 L 508.265625 263.105469 L 505.71875 266.835938 L 503.171875 270.5625 L 500.625 274.292969 L 498.078125 278.019531 L 492.984375 285.480469 L 490.4375 289.207031 L 487.894531 292.9375 L 485.347656 296.664063 L 480.253906 304.125 L 477.707031 307.851563 L 475.160156 311.582031 L 472.613281 315.308594 L 467.519531 322.769531 L 471.25 325.222656 L 475.0625 327.550781 L 478.949219 329.742188 L 482.910156 331.804688 L 486.9375 333.730469 L 491.03125 335.515625 L 495.179688 337.164063 L 499.382813 338.664063 L 503.636719 340.023438 L 507.933594 341.238281 L 512.269531 342.304688 L 516.636719 343.222656 L 521.035156 343.992188 L 525.457031 344.609375 L 529.898438 345.074219 L 534.351563 345.390625 L 538.8125 345.554688 L 543.277344 345.566406 L 547.742188 345.425781 L 552.195313 345.128906 L 556.636719 344.6875 L 561.0625 344.089844 L 565.464844 343.34375 L 569.839844 342.445313 L 574.179688 341.402344 L 578.480469 340.210938 L 582.742188 338.871094 L 586.953125 337.390625 L 591.113281 335.765625 L 595.210938 333.996094 L 599.25 332.09375 L 603.222656 330.050781 L 607.121094 327.875 L 610.941406 325.570313 L 614.683594 323.132813 L 618.339844 320.570313 L 621.90625 317.882813 L 625.378906 315.078125 L 628.753906 312.15625 L 632.027344 309.121094 L 635.199219 305.976563 L 638.257813 302.722656 L 641.203125 299.371094 L 644.035156 295.917969 L 646.746094 292.371094 L 649.335938 288.734375 L 651.796875 285.007813 L 654.132813 281.203125 L 656.335938 277.320313 L 658.40625 273.363281 L 660.34375 269.339844 L 662.136719 265.253906 L 663.792969 261.105469 L 665.308594 256.90625 L 666.675781 252.65625 L 667.898438 248.363281 L 668.976563 244.03125 L 669.902344 239.664063 L 670.683594 235.265625 L 671.3125 230.847656 L 666.832031 230.285156 L 662.347656 229.726563 L 639.945313 226.933594 L 635.464844 226.371094 L 608.582031 223.019531 L 604.101563 222.457031 L 599.621094 221.898438 L 595.136719 221.339844 L 581.695313 219.664063 L 577.214844 219.101563 L 550.332031 215.75 L 545.851563 215.1875 Z M 541.371094 214.628906 "/>
<path style=" stroke:none;fill-rule:nonzero;fill:rgb(0%,0%,1.568627%);fill-opacity:1;" d="M 541.371094 214.628906 L 541.371094 83.679688 L 536.933594 83.757813 L 532.5 83.980469 L 528.074219 84.359375 L 523.667969 84.882813 L 519.28125 85.558594 L 514.917969 86.378906 L 510.585938 87.351563 L 506.292969 88.46875 L 502.035156 89.726563 L 497.824219 91.132813 L 493.664063 92.679688 L 489.558594 94.367188 L 485.511719 96.191406 L 481.53125 98.152344 L 477.617188 100.25 L 473.777344 102.476563 L 470.015625 104.832031 L 466.335938 107.3125 L 462.738281 109.917969 L 459.234375 112.640625 L 455.828125 115.484375 L 452.515625 118.441406 L 449.304688 121.507813 L 446.203125 124.679688 L 443.210938 127.957031 L 440.328125 131.335938 L 437.5625 134.808594 L 434.917969 138.371094 L 432.394531 142.023438 L 429.996094 145.757813 L 427.726563 149.574219 L 425.585938 153.460938 L 423.578125 157.421875 L 421.707031 161.445313 L 419.972656 165.53125 L 418.378906 169.675781 L 416.925781 173.867188 L 415.617188 178.109375 L 414.449219 182.394531 L 413.429688 186.714844 L 412.558594 191.066406 L 411.832031 195.445313 L 411.257813 199.847656 L 410.832031 204.265625 L 410.554688 208.695313 L 410.429688 213.132813 L 410.453125 217.570313 L 410.628906 222.003906 L 410.953125 226.433594 L 411.429688 230.847656 L 412.054688 235.242188 L 412.824219 239.613281 L 413.746094 243.953125 L 414.8125 248.261719 L 416.027344 252.53125 L 417.382813 256.757813 L 418.882813 260.9375 L 420.523438 265.0625 L 422.300781 269.128906 L 424.214844 273.132813 L 426.265625 277.070313 L 428.449219 280.933594 L 430.761719 284.722656 L 433.199219 288.433594 L 435.761719 292.058594 L 438.449219 295.589844 L 441.25 299.035156 L 444.167969 302.378906 L 447.199219 305.621094 L 450.335938 308.761719 L 453.578125 311.792969 L 456.921875 314.710938 L 460.363281 317.515625 L 463.898438 320.203125 L 467.519531 322.769531 L 472.613281 315.308594 L 475.160156 311.582031 L 477.707031 307.851563 L 480.253906 304.125 L 485.347656 296.664063 L 487.894531 292.9375 L 490.4375 289.207031 L 492.984375 285.480469 L 498.078125 278.019531 L 500.625 274.292969 L 503.171875 270.5625 L 505.71875 266.835938 L 508.265625 263.105469 L 510.8125 259.378906 L 515.90625 251.917969 L 518.449219 248.191406 L 520.996094 244.460938 L 523.542969 240.734375 L 528.636719 233.273438 L 531.183594 229.546875 L 533.730469 225.816406 L 536.277344 222.089844 Z M 541.371094 214.628906 "/>
</g>
</g>
</svg>
